<?xml version="1.0" standalone="no"?> <!DOCTYPE svg PUBLIC "-//W3C//DTD SVG 1.0//EN" "http://www.w3.org/TR/2001/REC-SVG-20010904/DTD/svg10.dtd" > <svg xmlns="http://www.w3.org/2000/svg" width="100%" height="100%">
<defs >
<font id="DuplicateSlabRegular" horiz-adv-x="508" ><font-face
    font-family="DuplicateSlabRegular"
    units-per-em="1000"
    panose-1="0 0 0 0 0 0 0 0 0 0"
    ascent="854"
    descent="-146"
    alphabetic="0" />
<missing-glyph horiz-adv-x="510" />
<glyph unicode=" " glyph-name="space" horiz-adv-x="190" />
<glyph unicode="!" glyph-name="exclam" horiz-adv-x="248" d="M150 171H86L69 660H167L150 171ZM119 -7Q96 -7 78 10T60 51Q60 75 78 92T119 110Q144 110 161 93T178 51Q178 27 161 10T119 -7Z" />
<glyph unicode="&quot;" glyph-name="quotedbl" horiz-adv-x="337" d="M62 441L45 639H139L122 441H62ZM205 441L188 639H282L265 441H205Z" />
<glyph unicode="#" glyph-name="numbersign" horiz-adv-x="496" d="M376 459H453V384H364L346 272H422V197H334L302 0H235L267 197H177L145 0H78L110 197H33V272H122L140 384H63V459H152L181 639H248L219 459H309L338 639H405L376 459ZM189 272H279L297 384H207L189 272Z" />
<glyph unicode="$" glyph-name="dollar" horiz-adv-x="506" d="M368 482V567Q354 571 340 574T311 579L290 356Q323 349 354 341T411 315Q439 295 456 263T474 178Q474 127 456 91T408 31T340 -4T260 -15H256L248 -107H189L198 -10Q147 -2 111 15T55 53V175H129V78Q160
64 204 56L226 293Q203 298 183 304T146 320Q106 342 85 376T63 468Q63 514 79 548T123 605T185 639T259 653L265 718H324L317 650Q360 645 391 632T442 603V482H368ZM363 250Q350 260 329 267T283 280L262 52Q289 53 312 60T353 82T381 119T391 174Q391 200 386
218T363 250ZM185 389Q196 382 208 378T233 369L252 581Q231 579 212 573T178 554T154 520T145 469Q145 445 153 424T185 389Z" />
<glyph unicode="%" glyph-name="percent" horiz-adv-x="673" d="M108 478Q108 424 126 403T172 382Q201 382 218 403T236 478V512Q236 555 219 575T172 595Q142 595 125 575T108 512V478ZM631 148Q631 106 620 76T589 26T545 -3T491 -13Q464 -13 439 -4T394 25T363
75T351 148V156Q351 231 390 271T491 312Q553 312 592 272T631 156V148ZM427 137Q427 83 445 62T491 41Q520 41 537 62T555 137V171Q555 214 538 234T491 254Q461 254 444 234T427 171V137ZM172 328Q145 328 120 337T75 366T44 416T32 489V497Q32 572 71 612T172
653Q234 653 273 613T312 497V489Q312 447 301 417T270 367T226 338T172 328ZM147 0H79L519 639H587L147 0Z" />
<glyph unicode="&amp;" glyph-name="ampersand" horiz-adv-x="607" d="M223 -11Q176 -11 141 2T80 37T43 90T30 156Q30 195 41 223T72 272T119 310T177 342Q150 374 133 410T116 496Q116 528 126 556T156 606T205 639T271 652Q344 652 384 612T425 505Q425 444
388 404T290 331L408 188Q425 222 439 265T467 362H548Q528 294 507 236T456 130L510 63H562V0H456L405 63Q370 28 326 9T223 -11ZM226 55Q265 55 298 70T361 117L217 296Q190 282 171 269T140 239T123 204T117 160Q117 112 146 84T226 55ZM197 497Q197 462 212
433T255 371Q300 398 321 431T342 502Q342 534 325 558T271 582Q238 582 218 559T197 497Z" />
<glyph unicode="&apos;" glyph-name="quotesingle" horiz-adv-x="194" d="M62 441L45 639H139L122 441H62Z" />
<glyph unicode="(" glyph-name="parenleft" horiz-adv-x="308" d="M127 266Q127 205 138 152T170 54T216 -28T273 -93V-98H197Q178 -81 152 -49T101 29T60 137T43 275V308Q43 380 60 439T101 545T151 624T197 673H273V668Q243 641 217 603T170 519T139 422T127 317V266Z" />
<glyph unicode=")" glyph-name="parenright" horiz-adv-x="308" d="M171 309Q171 370 160 423T128 521T82 603T25 668V673H101Q120 656 146 624T197 546T238 438T255 300V267Q255 195 238 136T197 30T147 -49T101 -98H25V-93Q55 -66 81 -28T128 56T159 153T171 258V309Z" />
<glyph unicode="*" glyph-name="asterisk" horiz-adv-x="355" d="M36 457L127 499L36 538L69 595L148 538L137 639H208L198 540L276 595L309 538L216 499L309 457L276 399L197 457L208 356H137L148 459L69 399L36 457Z" />
<glyph unicode="+" glyph-name="plus" horiz-adv-x="486" d="M276 351H427V279H276V116H200V279H49V351H200V513H276V351Z" />
<glyph unicode="," glyph-name="comma" horiz-adv-x="244" d="M43 -112Q61 -68 68 -30T76 42Q76 74 70 103H164Q166 92 166 83T167 63Q167 12 148 -31T93 -112H43V-112Z" />
<glyph unicode="-" glyph-name="hyphen" horiz-adv-x="303" d="M55 306H238V232H55V306Z" />
<glyph unicode="." glyph-name="period" horiz-adv-x="244" d="M117 -7Q94 -7 76 10T58 51Q58 75 76 92T117 110Q142 110 159 93T176 51Q176 27 159 10T117 -7Z" />
<glyph unicode="/" glyph-name="slash" horiz-adv-x="337" d="M83 -98H7L227 673H303L83 -98Z" />
<glyph unicode="0" glyph-name="zero" horiz-adv-x="600" d="M295 -15Q245 -15 199 3T118 60T62 159T41 305V348Q41 424 60 481T112 576T192 633T295 653Q350 653 397 634T477 576T530 481T549 348V305Q549 220 529 160T473 60T392 3T295 -15ZM295 56Q331 56 361
69T414 110T449 181T462 286V377Q462 472 418 525T295 578Q217 578 173 525T128 377V286Q128 225 140 182T175 110T228 69T295 56Z" />
<glyph unicode="1" glyph-name="one" horiz-adv-x="416" d="M48 63H176V560L38 402H35V498L153 639H263V63H371V0H48V63Z" />
<glyph unicode="2" glyph-name="two" horiz-adv-x="496" d="M32 103Q188 206 267 290T346 458Q346 492 337 515T310 552T271 572T221 578Q165 578 121 559T45 517V583Q71 611 114 632T226 653Q269 653 307 643T373 609T417 548T433 456Q433 403 409 355T339 259T231
166T89 72V71H371V146H445V0H32V103Z" />
<glyph unicode="3" glyph-name="three" horiz-adv-x="498" d="M222 653Q266 653 303 641T368 606T410 552T426 483Q426 420 391 381T288 333V330Q363 322 406 280T450 164Q450 84 391 37T228 -10Q187 -10 155 -4T98 13T55 37T25 63V129Q59 99 105 81T223 62Q292
62 327 93T363 181Q363 237 329 266T215 296H130V365H215Q281 365 311 392T341 472Q341 526 308 552T214 578Q157 578 117 562T45 522V587Q69 612 112 632T222 653Z" />
<glyph unicode="4" glyph-name="four" horiz-adv-x="543" d="M407 639V249H496V179H407V63H496V0H237V63H320V179H34V275L277 639H407ZM97 249H320V582L97 249Z" />
<glyph unicode="5" glyph-name="five" horiz-adv-x="501" d="M215 -10Q174 -10 145 -5T95 10T60 30T34 52V118Q49 107 65 97T102 79T149 67T210 62Q279 62 321 95T363 194Q363 262 329 293T214 325Q160 325 124 314T63 291H55V639H423V489H349V564H134V376Q179
391 231 391Q290 391 331 375T399 332T438 268T450 189Q450 146 434 110T388 47T314 5T215 -10Z" />
<glyph unicode="6" glyph-name="six" horiz-adv-x="556" d="M457 634Q402 608 351 576T256 505T182 421T137 325Q157 362 196 385T295 408Q347 408 387 392T454 347T495 282T509 201V196Q509 149 494 110T450 44T378 1T282 -15Q228 -15 184 2T108 51T59 128T41
229V247Q41 329 72 394T147 508T239 589T321 639H457V634ZM280 345Q247 345 220 336T172 310T141 271T128 221V196Q128 130 169 91T282 52Q353 52 387 92T422 194V202Q422 230 415 255T390 301T346 333T280 345Z" />
<glyph unicode="7" glyph-name="seven" horiz-adv-x="481" d="M20 473V639H438V535L224 0H136L365 565H94V473H20Z" />
<glyph unicode="8" glyph-name="eight" horiz-adv-x="527" d="M259 -14Q214 -14 174 -1T103 36T55 94T37 173V181Q37 241 73 282T173 341Q122 357 90 392T57 484V489Q57 525 72 554T113 606T177 640T259 652Q303 652 340 640T403 607T445 555T460 490V484Q460
428 428 393T344 341Q407 324 443 283T480 182V174Q480 130 462 95T414 36T344 -1T259 -14ZM259 55Q318 55 355 83T392 175V191Q392 245 357 278T259 311Q196 311 161 278T125 191V175Q125 112 162 84T259 55ZM259 367Q313 367 345 392T378 472V487Q378 529 347
556T259 584Q202 584 171 557T139 487V472Q139 418 172 393T259 367Z" />
<glyph unicode="9" glyph-name="nine" horiz-adv-x="556" d="M124 5Q170 26 215 57T298 126T364 210T407 304Q386 269 348 247T251 225Q199 225 159 241T92 285T51 351T37 432V437Q37 485 52 525T96 593T168 638T264 654Q318 654 362 638T438 591T487 515T505
410V392Q505 316 478 252T413 138T333 53T260 0H124V5ZM266 288Q335 288 376 324T418 417V441Q418 507 377 547T264 587Q192 587 158 547T124 443V435Q124 407 131 381T156 334T200 301T266 288Z" />
<glyph unicode=":" glyph-name="colon" horiz-adv-x="244" d="M122 -7Q99 -7 81 10T63 51Q63 75 81 92T122 110Q147 110 164 93T181 51Q181 27 164 10T122 -7ZM122 303Q99 303 81 320T63 361Q63 385 81 402T122 420Q147 420 164 403T181 361Q181 337 164 320T122 303Z" />
<glyph unicode=";" glyph-name="semicolon" horiz-adv-x="244" d="M48 -112Q66 -68 73 -30T81 42Q81 74 75 103H169Q171 92 171 83T172 63Q172 12 153 -31T98 -112H48V-112ZM122 303Q99 303 81 320T63 361Q63 385 81 402T122 420Q147 420 164 403T181 361Q181
337 164 320T122 303Z" />
<glyph unicode="&lt;" glyph-name="less" horiz-adv-x="482" d="M422 524V447L116 315L422 184V106L50 266V364L422 524Z" />
<glyph unicode="=" glyph-name="equal" horiz-adv-x="522" d="M457 261V189H55V261H457ZM457 441V369H55V441H457Z" />
<glyph unicode="&gt;" glyph-name="greater" horiz-adv-x="482" d="M50 106V183L355 314L50 446V524L422 364V266L50 106Z" />
<glyph unicode="?" glyph-name="question" horiz-adv-x="405" d="M277 497Q277 550 250 576T166 602Q133 602 100 593V503H28V615Q52 639 89 653T180 667Q216 667 249 657T306 627T346 575T361 500Q361 458 348 430T316 380T273 341T231 305T198 265T185 211V171H116V222Q116
259 128 286T158 335T196 374T235 410T265 448T277 497ZM217 51Q217 27 200 10T158 -7Q135 -7 117 10T99 51Q99 75 117 92T158 110Q183 110 200 93T217 51Z" />
<glyph unicode="@" glyph-name="at" horiz-adv-x="870" d="M394 92Q415 92 436 101T476 129T506 173T524 231L526 245Q532 285 525 313T504 359T469 385T427 393Q405 393 384 383T346 348T319 286T308 193Q308 148 329 120T394 92ZM457 652Q536 652 603 629T720
563T798 456T827 314Q827 249 814 197T775 109T715 53T638 33Q581 33 552 61T519 132Q502 81 465 55T380 28Q304 28 265 78T225 207Q225 257 238 303T278 384T341 441T428 463Q456 463 477 454T512 429T535 393T546 350Q548 370 553 388T565 420Q571 437 579 452H644L600
181Q592 131 602 111T645 90Q694 90 728 146T762 316Q762 391 738 443T671 528T573 575T452 590Q377 590 314 563T204 488T131 371T105 218Q105 141 127 82T192 -19T296 -81T435 -102Q472 -102 510 -96T582 -79T646 -54T695 -24V-79Q677 -94 650 -108T588 -134T513
-152T430 -159Q344 -159 273 -134T149 -60T67 58T38 217Q38 319 72 399T164 536T297 622T457 652Z" />
<glyph unicode="A" glyph-name="A" horiz-adv-x="661" d="M409 63H489L450 189H195L155 63H237V0H25V63H73L259 639H393L578 63H626V0H409V63ZM218 262H427L323 598L218 262Z" />
<glyph unicode="B" glyph-name="B" horiz-adv-x="598" d="M35 639H324Q368 639 404 629T466 597T506 545T520 471Q520 405 488 365T380 317V314Q456 309 499 275T543 177Q543 137 533 105T497 49T428 13T320 0H35V63H101V572H35V639ZM309 69Q353 69 381 75T426
95T449 128T456 175Q456 235 421 256T307 278H188V69H309ZM307 351Q373 351 404 377T435 460Q435 518 404 541T314 565H188V351H307Z" />
<glyph unicode="C" glyph-name="C" horiz-adv-x="596" d="M456 558Q430 567 401 572T337 578Q283 578 244 562T180 516T143 444T131 351V311Q131 186 184 121T346 56Q378 56 408 63T466 82V180H540V61Q515 33 465 9T340 -15Q274 -15 219 7T125 73T64 179T42 324V326Q42
401 61 461T116 564T207 630T331 653Q410 653 458 632T530 586V473H456V558Z" />
<glyph unicode="D" glyph-name="D" horiz-adv-x="660" d="M35 639H338Q408 639 459 618T543 556T592 459T608 331V329Q608 171 537 86T319 0H35V63H101V572H35V639ZM308 69Q366 69 406 85T471 133T507 211T519 315V355Q519 402 511 441T481 507T422 550T328 565H188V69H308Z"
/>
<glyph unicode="E" glyph-name="E" horiz-adv-x="580" d="M443 565H188V353H447V282H188V70H453V166H527V0H35V63H101V572H35V639H517V473H443V565Z" />
<glyph unicode="F" glyph-name="F" horiz-adv-x="567" d="M448 565H188V334H461V261H188V63H285V0H35V63H101V572H35V639H522V473H448V565Z" />
<glyph unicode="G" glyph-name="G" horiz-adv-x="628" d="M354 325H563V64Q528 29 475 7T346 -15Q281 -15 225 6T129 70T65 176T42 322V324Q42 399 64 459T126 563T222 629T345 653Q417 653 463 635T537 591V473H465V560Q441 568 413 573T354 578Q248 578 190
518T131 349V309Q131 184 187 121T352 57Q387 57 418 64T476 82V258H354V325Z" />
<glyph unicode="H" glyph-name="H" horiz-adv-x="706" d="M425 63H508V289H188V63H271V0H35V63H101V572H35V639H271V572H188V362H508V572H425V639H661V572H595V63H661V0H425V63Z" />
<glyph unicode="I" glyph-name="I" horiz-adv-x="313" d="M35 639H268V572H195V63H268V0H35V63H108V572H35V639Z" />
<glyph unicode="J" glyph-name="J" horiz-adv-x="404" d="M126 639H359V572H299V156Q299 79 260 35T136 -10Q98 -10 70 -1T27 21V76Q42 71 64 66T121 61Q212 61 212 162V572H126V639Z" />
<glyph unicode="K" glyph-name="K" horiz-adv-x="633" d="M357 63H435L188 330V63H271V0H35V63H101V572H35V639H271V572H188V336L432 572H357V639H579V572H528L286 338L541 63H593V0H357V63Z" />
<glyph unicode="L" glyph-name="L" horiz-adv-x="557" d="M35 639H276V572H188V70H438V166H512V0H35V63H101V572H35V639Z" />
<glyph unicode="M" glyph-name="M" horiz-adv-x="852" d="M571 63H654V558L465 0H370L182 554V63H265V0H35V63H101V572H35V639H237L421 79L608 639H807V572H741V63H807V0H571V63Z" />
<glyph unicode="N" glyph-name="N" horiz-adv-x="712" d="M441 639H671V572H605V0H476L182 571V63H265V0H35V63H101V572H35V639H240L524 78V572H441V639Z" />
<glyph unicode="O" glyph-name="O" horiz-adv-x="682" d="M336 56Q436 56 488 115T541 302V354Q541 403 529 444T492 515T428 561T336 578Q283 578 244 562T180 515T143 444T131 354V302Q131 174 183 115T336 56ZM336 -15Q273 -15 219 6T126 69T64 174T42 321V323Q42
398 61 459T118 563T210 629T336 653Q407 653 461 630T553 563T610 459T630 323V321Q630 237 608 174T547 69T454 6T336 -15Z" />
<glyph unicode="P" glyph-name="P" horiz-adv-x="575" d="M35 639H328Q432 639 483 586T534 438Q534 341 477 290T311 239H188V63H285V0H35V63H101V572H35V639ZM301 309Q385 309 417 344T449 439Q449 497 420 531T318 565H188V309H301Z" />
<glyph unicode="Q" glyph-name="Q" horiz-adv-x="684" d="M336 -15Q273 -15 219 6T126 69T64 174T42 321V323Q42 398 61 459T118 563T210 629T336 653Q407 653 461 630T553 563T610 459T630 323V321Q630 218 599 148T511 37L558 -22H636V-85H514L446 3Q395 -15
336 -15ZM336 54Q371 54 401 60L290 203H383L469 91Q506 120 524 171T543 302V354Q543 403 531 444T493 515T428 561T336 578Q283 578 244 562T180 515T142 444T129 354V302Q129 174 182 114T336 54Z" />
<glyph unicode="R" glyph-name="R" horiz-adv-x="594" d="M188 299V63H271V0H35V63H101V572H35V639H317Q421 639 472 589T523 454Q523 367 469 325T323 282H304L492 63H559V0H444L188 299ZM303 339Q378 339 406 368T435 456Q435 508 408 536T307 565H188V339H303Z" />
<glyph unicode="S" glyph-name="S" horiz-adv-x="538" d="M370 562Q347 569 324 573T278 578Q252 578 228 574T184 559T152 526T140 469Q140 445 148 425T180 391Q205 376 237 369T302 356T366 342T421 317Q449 297 465 264T482 178Q482 127 464 91T416 31T346
-4T263 -15Q183 -15 130 5T50 48V180H124V83Q151 71 184 64T256 56Q286 56 312 62T357 82T388 118T399 174Q399 200 394 217T371 248Q355 260 325 268T261 283T194 298T139 318Q99 340 79 375T58 468Q58 516 75 551T122 608T190 642T270 653Q334 653 377 638T444
603V473H370V562Z" />
<glyph unicode="T" glyph-name="T" horiz-adv-x="621" d="M494 565H349V63H432V0H179V63H262V565H117V443H38V639H573V443H494V565Z" />
<glyph unicode="U" glyph-name="U" horiz-adv-x="700" d="M428 639H658V572H598V244Q598 170 580 121T528 41T448 -2T345 -15Q290 -15 244 -2T164 41T111 121T92 245V572H32V639H262V572H179V226Q179 131 221 93T345 54Q426 54 468 92T511 225V572H428V639Z" />
<glyph unicode="V" glyph-name="V" horiz-adv-x="675" d="M428 639H640V572H591L399 0H265L74 572H25V639H242V572H162L335 41L508 572H428V639Z" />
<glyph unicode="W" glyph-name="W" horiz-adv-x="920" d="M456 536L325 0H194L71 572H25V639H242V572H160L264 52L408 639H510L652 52L758 572H673V639H885V572H839L717 0H587L456 536Z" />
<glyph unicode="X" glyph-name="X" horiz-adv-x="650" d="M398 63H457L319 283L178 63H247V0H30V63H87L264 332L102 572H46V639H263V572H200L325 384L445 572H378V639H590V572H535L377 336L554 63H610V0H398V63Z" />
<glyph unicode="Y" glyph-name="Y" horiz-adv-x="606" d="M25 639H242V572H167L301 316L438 572H359V639H571V572H522L342 247V63H425V0H172V63H255V246L74 572H25V639Z" />
<glyph unicode="Z" glyph-name="Z" horiz-adv-x="566" d="M65 639H515V541L122 70H437V166H511V0H41V98L429 564H139V473H65V639Z" />
<glyph unicode="[" glyph-name="bracketleft" horiz-adv-x="373" d="M77 673H323V605H156V-34H323V-98H77V673Z" />
<glyph unicode="\" glyph-name="backslash" horiz-adv-x="337" d="M100 673L320 -98H244L24 673H100Z" />
<glyph unicode="]" glyph-name="bracketright" horiz-adv-x="373" d="M40 -98V-34H207V605H40V673H286V-98H40Z" />
<glyph unicode="^" glyph-name="asciicircum" horiz-adv-x="422" d="M298 435L206 584L114 435H45L154 639H258L367 435H298Z" />
<glyph unicode="_" glyph-name="underscore" horiz-adv-x="377" d="M-8 -74H375V-134H-8V-74Z" />
<glyph unicode="`" glyph-name="grave" horiz-adv-x="410" d="M61 673H180L237 539H180L61 673Z" />
<glyph unicode="a" glyph-name="a" d="M65 434Q74 443 88 453T123 471T170 485T230 491Q323 491 365 443T409 313V104Q409 79 417 67T453 55Q459 55 463 55T474 56V7Q467 4 459 1Q444 -4 420 -4Q381 -4 355 16T325 94Q311 40 271 14T174 -13Q111 -13 72 20T32
114V115Q32 154 48 179T92 219T154 244T228 263Q257 270 275 277T305 293T320 313T325 342V344Q325 379 300 404T218 430Q196 430 177 426T141 416V338H65V434ZM204 45Q226 45 247 54T286 81T314 125T325 186V257Q309 243 285 233T235 213Q202 201 180 193T144
175T124 155T118 125V120Q118 84 139 65T204 45Z" />
<glyph unicode="b" glyph-name="b" horiz-adv-x="597" d="M28 673H174V357Q191 417 238 454T357 491Q403 491 439 474T501 424T539 347T552 248V247Q552 183 537 135T494 55T429 6T350 -11Q280 -11 235 23T173 116Q171 83 168 61T162 25Q158 9 154 0H28V63H90V606H28V673ZM331
51Q393 51 429 94T466 234V270Q466 342 432 383T331 424Q300 424 272 414T222 382T187 331T174 262V242Q174 191 187 155T221 96T271 62T331 51Z" />
<glyph unicode="c" glyph-name="c" horiz-adv-x="475" d="M341 422Q325 426 307 428T267 431Q237 431 210 422T163 393T130 342T118 268V232Q118 138 158 97T274 55Q297 55 319 60T360 72T396 88T424 104V42Q408 25 368 7T265 -11Q213 -11 170 6T97 55T49 135T32
242V243Q32 311 52 358T106 434T180 477T263 491Q330 491 365 476T416 446V344H341V422Z" />
<glyph unicode="d" glyph-name="d" horiz-adv-x="597" d="M335 673H497V63H559V0H433Q427 17 423 36Q419 53 416 74T413 120Q396 58 352 23T238 -12Q191 -12 154 7T90 60T49 143T35 252V253Q35 311 51 355T96 430T160 475T238 490Q310 490 352 456T413 364V606H335V673ZM256
50Q287 50 315 62T365 96T400 152T413 228V246Q413 294 400 327T365 382T315 413T256 423Q194 423 158 387T121 266V230Q121 147 155 99T256 50Z" />
<glyph unicode="e" glyph-name="e" horiz-adv-x="497" d="M276 -11Q221 -11 176 5T99 52T50 131T32 241V242Q32 299 48 345T94 423T165 473T256 491Q310 491 347 474T408 429T442 365T453 289Q453 252 446 220H118Q119 174 130 143T163 92T215 64T286 55Q337 55
378 67T440 94V40Q426 21 384 5T276 -11ZM256 430Q196 430 158 389T118 273H377V283Q377 360 343 395T256 430Z" />
<glyph unicode="f" glyph-name="f" horiz-adv-x="360" d="M28 479H100V533Q100 576 113 604T147 650T190 673T231 680Q263 680 285 672T320 652V611Q311 612 295 612T267 613Q242 613 226 609T201 596T188 574T184 541V479H320V417H184V63H280V0H28V63H100V417H28V479Z" />
<glyph unicode="g" glyph-name="g" horiz-adv-x="594" d="M255 -155Q214 -155 184 -150T133 -136T97 -117T74 -95V-27Q84 -36 98 -46T133 -66T182 -81T247 -87Q283 -87 312 -78T364 -51T398 -2T410 70V141Q393 81 348 52T233 22Q185 22 148 39T85 87T46 163T32
261V262Q32 314 48 356T91 428T156 474T236 490Q308 490 350 462T410 375Q411 395 414 414T421 448Q425 465 430 479H556V406H494V76Q494 17 476 -26T426 -98T351 -141T255 -155ZM251 83Q282 83 310 93T361 123T396 172T410 241V257Q410 299 398 330T364 382T314
413T255 423Q193 423 156 387T118 273V241Q118 166 151 125T251 83Z" />
<glyph unicode="h" glyph-name="h" horiz-adv-x="596" d="M344 63H417V340Q417 421 323 421Q292 421 265 411T219 381T187 332T174 265V63H250V0H28V63H90V606H28V673H174V348Q180 383 196 409T235 454T286 481T346 491Q416 491 458 450T501 327V63H558V0H344V63Z" />
<glyph unicode="i" glyph-name="i" horiz-adv-x="282" d="M28 479H178V63H244V0H28V63H94V406H28V479ZM130 551Q107 551 91 566T75 605Q75 628 91 644T130 660Q153 660 169 644T185 605Q185 582 169 567T130 551Z" />
<glyph unicode="j" glyph-name="j" horiz-adv-x="262" d="M28 479H178V-33Q178 -67 169 -90T145 -127T109 -147T67 -153Q35 -153 15 -146T-13 -130V-87Q-4 -88 5 -88T31 -88Q66 -88 80 -80T94 -38V406H28V479ZM130 551Q107 551 91 566T75 605Q75 628 91 644T130
660Q153 660 169 644T185 605Q185 582 169 567T130 551Z" />
<glyph unicode="k" glyph-name="k" horiz-adv-x="528" d="M174 244V63H252V0H28V63H90V606H28V673H174V259L366 479H467V406H389L260 258L422 63H490V0H375L174 244Z" />
<glyph unicode="l" glyph-name="l" horiz-adv-x="282" d="M28 673H178V63H244V0H28V63H94V606H28V673Z" />
<glyph unicode="m" glyph-name="m" horiz-adv-x="879" d="M322 63H395V340Q395 382 377 401T314 421Q253 421 215 381T174 265V63H250V0H28V63H90V406H28V479H154Q160 462 164 443Q168 426 171 406T174 362V353Q187 420 232 455T335 491Q398 491 433 454T470 343Q476
379 492 407T532 453T582 481T640 491Q707 491 745 450T784 327V63H841V0H627V63H700V340Q700 382 682 401T619 421Q556 421 519 381T479 265V63H552V0H322V63Z" />
<glyph unicode="n" glyph-name="n" horiz-adv-x="596" d="M344 63H417V340Q417 421 323 421Q292 421 265 411T219 381T187 332T174 265V63H250V0H28V63H90V406H28V479H154Q160 462 164 443Q168 426 171 406T174 362V348Q180 383 196 409T235 454T286 481T346 491Q416
491 458 450T501 327V63H558V0H344V63Z" />
<glyph unicode="o" glyph-name="o" horiz-adv-x="544" d="M267 49Q298 49 325 59T373 91T404 147T416 232V270Q416 345 376 387T267 430Q199 430 159 388T118 270V232Q118 182 129 148T161 91T208 59T267 49ZM267 -11Q219 -11 177 4T102 52T51 132T32 245V246Q32
302 49 347T96 424T170 473T267 491Q320 491 363 474T437 425T485 348T502 247V246Q502 181 484 133T433 52T358 5T267 -11Z" />
<glyph unicode="p" glyph-name="p" horiz-adv-x="597" d="M28 479H154Q160 462 164 443Q168 426 171 406T174 362V357Q191 417 238 454T357 491Q403 491 439 474T501 424T539 347T552 248V247Q552 183 537 135T494 55T429 6T350 -11Q281 -11 236 22T174 114V-87H250V-146H28V-87H90V406H28V479ZM331
51Q393 51 429 94T466 234V270Q466 342 432 383T331 424Q300 424 272 414T222 382T187 331T174 262V242Q174 191 187 155T221 96T271 62T331 51Z" />
<glyph unicode="q" glyph-name="q" horiz-adv-x="597" d="M337 -87H413V120Q396 58 352 23T238 -12Q191 -12 154 7T90 60T49 143T35 252V253Q35 311 51 355T96 430T160 475T238 490Q310 490 352 456T413 363Q413 386 416 406T423 443Q427 461 433 479H559V406H497V-87H559V-146H337V-87ZM256
50Q287 50 315 62T365 96T400 152T413 228V246Q413 294 400 327T365 382T315 413T256 423Q194 423 158 387T121 266V230Q121 147 155 99T256 50Z" />
<glyph unicode="r" glyph-name="r" horiz-adv-x="391" d="M28 479H154Q160 462 164 443Q168 426 171 406T174 362V330Q181 371 195 400T227 449T265 477T305 486Q327 486 336 481T351 467V404Q308 404 275 395T220 363T186 302T174 205V63H262V0H28V63H90V406H28V479Z" />
<glyph unicode="s" glyph-name="s" horiz-adv-x="428" d="M282 424Q268 427 254 429T223 431Q179 431 149 415T118 356Q118 336 124 322T150 299Q171 289 194 285T240 277T286 267T327 248Q349 233 366 208T383 135Q383 99 369 72T331 26T275 -2T204 -11Q141 -11
101 4T32 39V135H107V61Q124 55 145 52T194 48Q248 48 276 67T304 131Q304 149 299 163T279 186Q265 194 244 199T199 208T152 218T110 233Q76 250 59 275T42 349Q42 385 55 411T91 456T146 482T216 491Q261 491 298 481T357 455V358H282V424Z" />
<glyph unicode="t" glyph-name="t" horiz-adv-x="388" d="M246 -13Q219 -13 193 -7T147 16T113 61T100 133V412H28V462Q60 463 77 471T105 498T119 546T130 619H184V479H338V412H184V139Q184 88 205 71T262 53Q285 53 305 57T346 69V27Q336 11 312 -1T246 -13Z" />
<glyph unicode="u" glyph-name="u" horiz-adv-x="593" d="M429 0Q423 17 419 36Q415 53 412 73T409 117V123Q403 91 388 66T351 23T302 -3T247 -12Q172 -12 129 32T85 173V406H28V479H169V160Q169 103 193 79T265 54Q296 54 322 65T368 97T398 147T409 212V406H333V479H493V63H555V0H429V0Z"
/>
<glyph unicode="v" glyph-name="v" horiz-adv-x="571" d="M328 479H541V406H489L340 0H227L72 406H20V479H234V406H162L288 57L407 406H328V479Z" />
<glyph unicode="w" glyph-name="w" horiz-adv-x="775" d="M383 370L291 0H175L66 406H20V479H234V406H150L237 57L343 479H426L538 57L620 406H532V479H745V406H700L595 0H478L383 370Z" />
<glyph unicode="x" glyph-name="x" horiz-adv-x="558" d="M306 59H379L267 202L153 59H236V0H29V63H72L216 242L90 406H28V479H240V410H186L282 285L374 410H314V479H520V406H454L332 245L476 63H519V0H306V59Z" />
<glyph unicode="y" glyph-name="y" horiz-adv-x="564" d="M325 479H534V406H481L330 -6Q315 -46 300 -74T267 -121T224 -147T169 -156Q131 -156 107 -146T69 -122V-76Q88 -82 109 -86T156 -90Q196 -90 219 -73T254 -26L264 0H226L72 406H20V479H234V406H160L284
58L403 406H325V479Z" />
<glyph unicode="z" glyph-name="z" horiz-adv-x="474" d="M43 479H426V397L113 64H358V155H430V0H30V82L342 414H115V338H43V479Z" />
<glyph unicode="{" glyph-name="braceleft" horiz-adv-x="313" d="M84 288Q117 282 139 272T175 247T194 214T200 177Q200 157 196 138T188 100T180 64T176 29Q176 6 180 -10T194 -40T218 -66T253 -93V-98H180Q166 -93 151 -83T122 -58T101 -23T92 22Q92 42 97
62T109 103T121 143T127 181Q127 192 123 203T107 225T77 241T30 250V329Q58 331 77 337T107 354T122 375T127 398Q127 416 122 435T110 473T98 513T92 553Q92 578 100 598T122 633T150 658T180 673H253V668Q233 654 219 642T195 616T181 585T176 546Q176 529 179
512T187 477T196 441T200 402Q200 363 176 333T84 291V288Z" />
<glyph unicode="|" glyph-name="bar" horiz-adv-x="246" d="M156 -98H80V673H156V-98Z" />
<glyph unicode="}" glyph-name="braceright" horiz-adv-x="313" d="M219 291Q152 303 128 333T103 402Q103 422 107 440T115 477T123 512T127 546Q127 568 123 585T109 615T85 641T50 668V673H123Q137 668 152 658T181 633T202 598T211 553Q211 533 206 513T194
474T182 435T176 398Q176 387 180 376T196 354T226 338T273 329V250Q245 248 226 242T196 225T181 204T176 181Q176 163 181 144T193 104T205 63T211 22Q211 -3 203 -23T181 -58T153 -83T123 -98H50V-93Q70 -79 84 -67T108 -41T122 -11T127 29Q127 46 124 63T116
100T107 138T103 177Q103 196 108 214T127 246T163 271T219 288V291Z" />
<glyph unicode="~" glyph-name="asciitilde" horiz-adv-x="380" d="M55 221Q51 243 53 264T65 301T90 326T129 336Q150 336 165 330T193 318T215 305T237 299Q253 299 258 309T265 341H312Q316 318 314 298T304 261T280 236T243 226Q226 226 212 232T184 244T158
257T131 263Q116 263 110 253T102 221H55V221Z" />
<glyph unicode="&#x8e;" glyph-name="Zcaron" horiz-adv-x="566" d="M70 639H520V541L127 70H442V166H516V0H46V98L434 564H144V473H70V639ZM219 796L294 743L369 796H431L347 685H241L157 796H219Z" />
<glyph unicode="&#x9e;" glyph-name="zcaron" horiz-adv-x="474" d="M48 479H431V397L118 64H363V155H435V0H35V82L347 414H120V338H48V479ZM167 673L246 596L325 673H386L298 539H194L106 673H167Z" />
<glyph unicode="&#xa0;" glyph-name="uni00A0" horiz-adv-x="190" />
<glyph unicode="&#xa1;" glyph-name="exclamdown" horiz-adv-x="248" d="M93 316H157L174 -173H76L93 316ZM124 494Q147 494 165 477T183 436Q183 412 165 395T124 377Q99 377 82 394T65 436Q65 460 82 477T124 494Z" />
<glyph unicode="&#xa2;" glyph-name="cent" horiz-adv-x="467" d="M349 421Q339 423 329 425T307 429L267 54H276Q322 54 362 69T426 99V45Q411 25 370 7T265 -11H260L250 -107H191L202 -3Q124 17 79 82T34 242V243Q34 306 53 352T103 428T174 474T255 491L264
574H323L314 488Q356 483 380 471T418 443V350H349V421ZM120 232Q120 99 209 65L248 430Q222 427 199 416T158 384T130 335T120 268V232Z" />
<glyph unicode="&#xa3;" glyph-name="sterling" horiz-adv-x="501" d="M50 355H101V450Q101 499 116 537T158 600T221 639T298 653Q358 653 392 636T447 592V493H373V570Q342 581 304 581Q277 581 255 574T218 550T193 507T184 441V355H349V289H184V253Q184 182
154 140T75 72V71H378V146H452V0H30V110Q66 132 83 161T101 244V289H50V355Z" />
<glyph unicode="&#xa5;" glyph-name="yen" horiz-adv-x="553" d="M483 259H315V196H483V137H315V63H398V0H145V63H228V137H60V196H228V259H60V318H211L70 576H25V639H240V576H159L275 357L390 576H306V639H518V576H472L331 318H483V259Z" />
<glyph unicode="&#xa6;" glyph-name="brokenbar" horiz-adv-x="246" d="M156 266V-98H80V266H156ZM156 326H80V673H156V326Z" />
<glyph unicode="&#xa7;" glyph-name="section" horiz-adv-x="516" d="M401 518H329V581Q315 584 300 586T268 588Q247 588 228 585T195 572T172 549T163 514Q163 496 169 482T195 459Q216 449 240 444T290 432T345 419T403 399Q432 386 450 360T468 299Q468 250
440 222T368 180Q393 165 409 139T425 68Q425 32 412 5T375 -41T320 -69T251 -78Q189 -78 150 -63T82 -24V68H154V-3Q171 -8 192 -11T242 -15Q295 -15 320 3T345 63Q345 81 340 95T315 119Q302 126 277 131T222 142T162 155T107 175Q73 192 55 218T37 284Q37 332
66 359T142 397Q114 414 100 440T86 509Q86 545 99 571T136 616T191 642T260 651Q305 651 342 640T401 611V518ZM314 206Q343 206 367 224T391 278Q391 303 381 317T344 339Q326 345 305 351T263 362T224 370T194 373Q179 373 164 368T136 354T117 331T109 300Q109
280 118 267T149 242Q164 235 185 229T228 217T273 209T314 206Z" />
<glyph unicode="&#xa8;" glyph-name="dieresis" horiz-adv-x="410" d="M114 551Q92 551 77 566T61 603Q61 624 76 639T114 655Q135 655 150 640T166 603Q166 581 151 566T114 551ZM286 551Q265 551 250 566T234 603Q234 624 249 639T286 655Q308 655 323 640T339
603Q339 581 324 566T286 551Z" />
<glyph unicode="&#xa9;" glyph-name="copyright" horiz-adv-x="754" d="M372 -14Q301 -14 240 12T133 83T63 188T37 317Q37 386 62 446T133 552T239 624T372 651Q444 651 505 625T611 553T681 447T707 317Q707 249 682 189T612 83T506 12T372 -14ZM372 33Q432
33 484 55T573 117T632 207T654 317Q654 375 633 427T574 518T484 581T372 604Q312 604 261 581T171 519T112 427T90 317Q90 259 111 208T171 117T260 56T372 33ZM382 130Q304 130 257 180T209 324V326Q209 411 253 461T377 512Q422 512 445 500T483 474V404H416V451Q409
452 403 452T388 453Q334 453 309 424T283 341V315Q283 249 311 217T393 185Q407 185 422 188V244H489V171Q475 156 449 143T382 130Z" />
<glyph unicode="&#xaa;" glyph-name="ordfeminine" horiz-adv-x="370" d="M48 606Q60 618 89 632T167 647Q235 647 265 613T295 520V384Q295 367 301 360T324 352Q333 352 337 353V312Q332 309 326 307Q321 305 314 304T296 303Q267 303 249 318T226 370Q216 334
189 316T123 298Q79 298 53 321T26 385V386Q26 413 37 430T66 458T109 476T159 489Q198 498 212 508T226 540V542Q226 565 210 581T156 598Q142 598 130 596T106 590V536H48V606ZM150 343Q179 343 202 366T226 433V482Q215 473 201 466T170 453Q129 438 113 428T97
395V391Q97 343 150 343Z" />
<glyph unicode="&#xab;" glyph-name="guillemotleft" horiz-adv-x="372" d="M197 406L105 246L197 85H115L26 245L115 406H197ZM243 246L335 85H253L164 245L253 406H335L243 246Z" />
<glyph unicode="&#xae;" glyph-name="registered" horiz-adv-x="373" d="M182 348Q150 348 122 359T74 391T42 439T30 497Q30 527 41 554T73 602T122 635T182 647Q215 647 242 635T290 603T321 555T333 497Q333 466 322 439T290 392T243 360T182 348ZM182 377Q208
377 230 386T267 412T291 450T300 497Q300 522 292 544T268 582T230 608T182 618Q156 618 134 609T97 583T72 544T63 497Q63 472 72 450T96 412T134 387T182 377ZM164 485V426H128V576H186Q212 576 228 565T244 531Q244 493 202 488L252 426H211L164 485ZM183 506Q198
506 203 512T208 529Q208 540 203 545T184 550H164V506H183Z" />
<glyph unicode="&#xaf;" glyph-name="macron" horiz-adv-x="410" d="M82 628H318V562H82V628Z" />
<glyph unicode="&#xb0;" glyph-name="degree" horiz-adv-x="368" d="M35 506Q35 536 46 562T76 607T121 638T178 649Q209 649 235 638T281 608T312 562T323 506Q323 476 312 450T282 405T236 374T178 363Q147 363 121 374T76 404T46 450T35 506ZM102 506Q102 466
124 443T178 420Q212 420 234 443T256 506Q256 543 234 568T178 593Q146 593 124 568T102 506Z" />
<glyph unicode="&#xb1;" glyph-name="plusminus" horiz-adv-x="486" d="M276 366H427V294H276V146H200V294H49V366H200V513H276V366ZM49 72H427V0H49V72Z" />
<glyph unicode="&#xb4;" glyph-name="acute" horiz-adv-x="410" d="M220 673H339L220 539H163L220 673Z" />
<glyph unicode="&#xb6;" glyph-name="paragraph" horiz-adv-x="533" d="M218 -98V291H214Q125 291 79 336T33 467Q33 548 77 593T207 639H488V572H422V-98H345V572H295V-98H218Z" />
<glyph unicode="&#xb7;" glyph-name="periodcentered" horiz-adv-x="244" d="M122 243Q99 243 81 260T63 301Q63 325 81 342T122 360Q147 360 164 343T181 301Q181 277 164 260T122 243Z" />
<glyph unicode="&#xb8;" glyph-name="cedilla" horiz-adv-x="410" d="M202 0V-39Q248 -44 266 -65T285 -115Q285 -150 260 -168T191 -187Q165 -187 148 -181T122 -167V-127Q130 -130 142 -133T171 -137Q215 -137 215 -110Q215 -97 203 -87T148 -76V0H202Z" />
<glyph unicode="&#xba;" glyph-name="ordmasculine" horiz-adv-x="392" d="M191 347Q231 347 258 374T285 468V493Q285 544 260 571T191 599Q149 599 123 572T97 493V468Q97 401 124 374T191 347ZM191 299Q158 299 128 309T76 342T40 397T26 476V477Q26 516 38
547T71 601T123 635T191 647Q265 647 310 602T356 478V477Q356 431 343 398T307 342T254 310T191 299Z" />
<glyph unicode="&#xbb;" glyph-name="guillemotright" horiz-adv-x="372" d="M165 85L257 245L165 406H247L336 246L247 85H165ZM119 245L27 406H109L198 246L109 85H27L119 245Z" />
<glyph unicode="&#xbc;" glyph-name="onequarter" horiz-adv-x="707" d="M158 0H93L576 639H641L158 0ZM627 376V154H676V104H627V49H676V0H513V49H560V104H393V169L536 376H627ZM440 154H560V326L440 154ZM40 311H110V579L32 492H31V562L99 639H179V311H238V263H40V311Z" />
<glyph unicode="&#xbd;" glyph-name="onehalf" horiz-adv-x="749" d="M157 0H92L575 639H640L157 0ZM465 72Q554 129 598 173T642 262Q642 299 622 312T572 326Q541 326 516 316T472 293V340Q488 357 514 370T584 384Q610 384 633 378T673 357T700 320T710 264Q710
202 657 152T508 52V51H660V93H716V0H465V72ZM40 311H110V579L32 492H31V562L99 639H179V311H238V263H40V311Z" />
<glyph unicode="&#xbe;" glyph-name="threequarters" horiz-adv-x="743" d="M185 0H120L603 639H668L185 0ZM663 376V154H712V104H663V49H712V0H549V49H596V104H429V169L572 376H663ZM476 154H596V326L476 154ZM148 647Q202 647 237 621T273 547Q273 510 252 487T185
458V456Q233 451 259 428T286 361Q286 311 249 284T148 257Q99 257 71 270T27 301V348Q47 332 73 322T140 311Q216 311 216 373Q216 402 198 417T137 432H91V481H136Q172 481 188 495T204 535Q204 589 135 589Q103 589 81 581T40 560V606Q54 622 80 634T148 647Z"
/>
<glyph unicode="&#xbf;" glyph-name="questiondown" horiz-adv-x="405" d="M123 -10Q123 -63 150 -89T234 -115Q267 -115 300 -106V-16H372V-128Q348 -152 311 -166T220 -180Q184 -180 151 -170T94 -140T54 -88T39 -13Q39 29 52 57T84 107T127 146T169 182T202
222T215 276V316H284V265Q284 228 272 201T242 152T204 113T165 77T135 39T123 -10ZM183 436Q183 460 200 477T242 494Q265 494 283 477T301 436Q301 412 283 395T242 377Q217 377 200 394T183 436Z" />
<glyph unicode="&#xc0;" glyph-name="Agrave" horiz-adv-x="661" d="M414 63H494L455 189H200L160 63H242V0H30V63H78L264 639H398L583 63H631V0H414V63ZM223 262H432L328 598L223 262ZM200 796H321L366 685H309L200 796Z" />
<glyph unicode="&#xc1;" glyph-name="Aacute" horiz-adv-x="661" d="M414 63H494L455 189H200L160 63H242V0H30V63H78L264 639H398L583 63H631V0H414V63ZM223 262H432L328 598L223 262ZM337 796H458L349 685H292L337 796Z" />
<glyph unicode="&#xc2;" glyph-name="Acircumflex" horiz-adv-x="661" d="M414 63H494L455 189H200L160 63H242V0H30V63H78L264 639H398L583 63H631V0H414V63ZM223 262H432L328 598L223 262ZM404 685L329 738L254 685H192L276 796H382L466 685H404Z" />
<glyph unicode="&#xc3;" glyph-name="Atilde" horiz-adv-x="661" d="M414 63H494L455 189H200L160 63H242V0H30V63H78L264 639H398L583 63H631V0H414V63ZM223 262H432L328 598L223 262ZM198 686Q194 707 196 726T206 761T229 786T267 796Q289 796 306 791T339
779T367 768T392 762Q408 762 411 771T417 800H460Q464 779 463 760T454 725T432 700T396 690Q378 690 361 695T329 707T298 718T267 724Q252 724 248 715T241 686H198V686Z" />
<glyph unicode="&#xc4;" glyph-name="Adieresis" horiz-adv-x="661" d="M414 63H494L455 189H200L160 63H242V0H30V63H78L264 639H398L583 63H631V0H414V63ZM223 262H432L328 598L223 262ZM238 671Q216 671 201 686T185 723Q185 744 200 759T238 775Q259 775 274
760T290 723Q290 701 275 686T238 671ZM421 671Q400 671 385 686T369 723Q369 744 384 759T421 775Q443 775 458 760T474 723Q474 701 459 686T421 671Z" />
<glyph unicode="&#xc5;" glyph-name="Aring" horiz-adv-x="661" d="M414 63H494L455 189H200L160 63H242V0H30V63H78L264 639H398L583 63H631V0H414V63ZM223 262H432L328 598L223 262ZM329 705Q349 705 362 718T375 754Q375 776 362 790T329 804Q310 804 297 790T284
754Q284 731 297 718T329 705ZM329 664Q290 664 264 690T238 754Q238 792 264 818T329 845Q348 845 365 838T394 819T414 790T421 754Q421 716 395 690T329 664Z" />
<glyph unicode="&#xc6;" glyph-name="AE" horiz-adv-x="876" d="M218 639H813V473H739V564H510V353H743V282H510V71H749V166H823V0H357V63H423V189H205L150 63H233V0H25V63H70L291 572H218V639ZM236 262H423V564H367L236 262Z" />
<glyph unicode="&#xc7;" glyph-name="Ccedilla" horiz-adv-x="596" d="M456 558Q430 567 401 572T337 578Q283 578 244 562T180 516T143 444T131 351V311Q131 186 184 121T346 56Q378 56 408 63T466 82V180H540V61Q515 33 465 9T340 -15Q330 -15 320 -14V-39Q366
-44 384 -65T403 -115Q403 -150 378 -168T309 -187Q283 -187 266 -181T240 -167V-127Q248 -130 260 -133T289 -137Q333 -137 333 -110Q333 -97 321 -87T266 -76V-7Q241 -2 219 7Q164 30 125 73T64 179T42 324V326Q42 401 61 461T116 564T207 630T331 653Q410 653
458 632T530 586V473H456V558Z" />
<glyph unicode="&#xc8;" glyph-name="Egrave" horiz-adv-x="580" d="M448 565H193V353H452V282H193V70H458V166H532V0H40V63H106V572H40V639H522V473H448V565ZM175 796H296L341 685H284L175 796Z" />
<glyph unicode="&#xc9;" glyph-name="Eacute" horiz-adv-x="580" d="M448 565H193V353H452V282H193V70H458V166H532V0H40V63H106V572H40V639H522V473H448V565ZM304 796H425L316 685H259L304 796Z" />
<glyph unicode="&#xca;" glyph-name="Ecircumflex" horiz-adv-x="580" d="M448 565H193V353H452V282H193V70H458V166H532V0H40V63H106V572H40V639H522V473H448V565ZM379 685L304 738L229 685H167L251 796H357L441 685H379Z" />
<glyph unicode="&#xcb;" glyph-name="Edieresis" horiz-adv-x="580" d="M448 565H193V353H452V282H193V70H458V166H532V0H40V63H106V572H40V639H522V473H448V565ZM213 671Q191 671 176 686T160 723Q160 744 175 759T213 775Q234 775 249 760T265 723Q265 701 250
686T213 671ZM396 671Q375 671 360 686T344 723Q344 744 359 759T396 775Q418 775 433 760T449 723Q449 701 434 686T396 671Z" />
<glyph unicode="&#xcc;" glyph-name="Igrave" horiz-adv-x="313" d="M40 639H273V572H200V63H273V0H40V63H113V572H40V639ZM284 796H405L450 685H393L284 796Z" />
<glyph unicode="&#xcd;" glyph-name="Iacute" horiz-adv-x="313" d="M40 639H273V572H200V63H273V0H40V63H113V572H40V639ZM421 796H542L433 685H376L421 796Z" />
<glyph unicode="&#xce;" glyph-name="Icircumflex" horiz-adv-x="313" d="M40 639H273V572H200V63H273V0H40V63H113V572H40V639ZM488 685L413 738L338 685H276L360 796H466L550 685H488Z" />
<glyph unicode="&#xcf;" glyph-name="Idieresis" horiz-adv-x="313" d="M40 639H273V572H200V63H273V0H40V63H113V572H40V639ZM322 671Q300 671 285 686T269 723Q269 744 284 759T322 775Q343 775 358 760T374 723Q374 701 359 686T322 671ZM505 671Q484 671 469
686T453 723Q453 744 468 759T505 775Q527 775 542 760T558 723Q558 701 543 686T505 671Z" />
<glyph unicode="&#xd0;" glyph-name="Eth" horiz-adv-x="660" d="M30 352H101V572H35V639H338Q408 639 459 618T543 556T592 459T608 331V329Q608 171 537 86T319 0H35V63H101V284H30V352ZM308 69Q366 69 406 85T471 133T507 211T519 315V355Q519 402 511 441T481
507T422 550T328 565H188V352H359V284H188V69H308Z" />
<glyph unicode="&#xd1;" glyph-name="Ntilde" horiz-adv-x="712" d="M446 639H676V572H610V0H481L187 571V63H270V0H40V63H106V572H40V639H245L529 78V572H446V639ZM236 686Q232 707 234 726T244 761T267 786T305 796Q327 796 344 791T377 779T405 768T430 762Q446
762 449 771T455 800H498Q502 779 501 760T492 725T470 700T434 690Q416 690 399 695T367 707T336 718T305 724Q290 724 286 715T279 686H236V686Z" />
<glyph unicode="&#xd2;" glyph-name="Ograve" horiz-adv-x="682" d="M341 56Q441 56 493 115T546 302V354Q546 403 534 444T497 515T433 561T341 578Q288 578 249 562T185 515T148 444T136 354V302Q136 174 188 115T341 56ZM341 -15Q278 -15 224 6T131 69T69 174T47
321V323Q47 398 66 459T123 563T215 629T341 653Q412 653 466 630T558 563T615 459T635 323V321Q635 237 613 174T552 69T459 6T341 -15ZM212 796H333L378 685H321L212 796Z" />
<glyph unicode="&#xd3;" glyph-name="Oacute" horiz-adv-x="682" d="M341 56Q441 56 493 115T546 302V354Q546 403 534 444T497 515T433 561T341 578Q288 578 249 562T185 515T148 444T136 354V302Q136 174 188 115T341 56ZM341 -15Q278 -15 224 6T131 69T69 174T47
321V323Q47 398 66 459T123 563T215 629T341 653Q412 653 466 630T558 563T615 459T635 323V321Q635 237 613 174T552 69T459 6T341 -15ZM349 796H470L361 685H304L349 796Z" />
<glyph unicode="&#xd4;" glyph-name="Ocircumflex" horiz-adv-x="682" d="M341 56Q441 56 493 115T546 302V354Q546 403 534 444T497 515T433 561T341 578Q288 578 249 562T185 515T148 444T136 354V302Q136 174 188 115T341 56ZM341 -15Q278 -15 224 6T131 69T69
174T47 321V323Q47 398 66 459T123 563T215 629T341 653Q412 653 466 630T558 563T615 459T635 323V321Q635 237 613 174T552 69T459 6T341 -15ZM416 685L341 738L266 685H204L288 796H394L478 685H416Z" />
<glyph unicode="&#xd5;" glyph-name="Otilde" horiz-adv-x="682" d="M341 56Q441 56 493 115T546 302V354Q546 403 534 444T497 515T433 561T341 578Q288 578 249 562T185 515T148 444T136 354V302Q136 174 188 115T341 56ZM341 -15Q278 -15 224 6T131 69T69 174T47
321V323Q47 398 66 459T123 563T215 629T341 653Q412 653 466 630T558 563T615 459T635 323V321Q635 237 613 174T552 69T459 6T341 -15ZM210 686Q206 707 208 726T218 761T241 786T279 796Q301 796 318 791T351 779T379 768T404 762Q420 762 423 771T429 800H472Q476
779 475 760T466 725T444 700T408 690Q390 690 373 695T341 707T310 718T279 724Q264 724 260 715T253 686H210V686Z" />
<glyph unicode="&#xd6;" glyph-name="Odieresis" horiz-adv-x="682" d="M341 56Q441 56 493 115T546 302V354Q546 403 534 444T497 515T433 561T341 578Q288 578 249 562T185 515T148 444T136 354V302Q136 174 188 115T341 56ZM341 -15Q278 -15 224 6T131 69T69
174T47 321V323Q47 398 66 459T123 563T215 629T341 653Q412 653 466 630T558 563T615 459T635 323V321Q635 237 613 174T552 69T459 6T341 -15ZM250 671Q228 671 213 686T197 723Q197 744 212 759T250 775Q271 775 286 760T302 723Q302 701 287 686T250 671ZM433
671Q412 671 397 686T381 723Q381 744 396 759T433 775Q455 775 470 760T486 723Q486 701 471 686T433 671Z" />
<glyph unicode="&#xd7;" glyph-name="multiply" horiz-adv-x="464" d="M177 308L50 435L100 485L227 358L354 485L404 435L277 308L404 181L354 131L227 258L100 131L50 181L177 308Z" />
<glyph unicode="&#xd8;" glyph-name="Oslash" horiz-adv-x="682" d="M336 -15Q283 -15 238 -1T155 42L108 -19H28L110 86V87Q78 129 60 187T42 321V323Q42 398 61 459T118 563T210 629T336 653Q440 653 511 602L553 656H633L557 558Q630 471 630 323V321Q630 237
608 174T547 69T454 6T336 -15ZM336 56Q436 56 489 115T542 302V354Q542 397 535 433T511 499L196 94Q244 56 336 56ZM130 302Q130 201 156 146L467 545Q444 561 412 569T336 578Q283 578 244 562T180 515T142 444T130 354V302Z" />
<glyph unicode="&#xd9;" glyph-name="Ugrave" horiz-adv-x="700" d="M433 639H663V572H603V244Q603 170 585 121T533 41T453 -2T350 -15Q295 -15 249 -2T169 41T116 121T97 245V572H37V639H267V572H184V226Q184 131 226 93T350 54Q431 54 473 92T516 225V572H433V639ZM221
796H342L387 685H330L221 796Z" />
<glyph unicode="&#xda;" glyph-name="Uacute" horiz-adv-x="700" d="M433 639H663V572H603V244Q603 170 585 121T533 41T453 -2T350 -15Q295 -15 249 -2T169 41T116 121T97 245V572H37V639H267V572H184V226Q184 131 226 93T350 54Q431 54 473 92T516 225V572H433V639ZM358
796H479L370 685H313L358 796Z" />
<glyph unicode="&#xdb;" glyph-name="Ucircumflex" horiz-adv-x="700" d="M433 639H663V572H603V244Q603 170 585 121T533 41T453 -2T350 -15Q295 -15 249 -2T169 41T116 121T97 245V572H37V639H267V572H184V226Q184 131 226 93T350 54Q431 54 473 92T516 225V572H433V639ZM425
685L350 738L275 685H213L297 796H403L487 685H425Z" />
<glyph unicode="&#xdc;" glyph-name="Udieresis" horiz-adv-x="700" d="M433 639H663V572H603V244Q603 170 585 121T533 41T453 -2T350 -15Q295 -15 249 -2T169 41T116 121T97 245V572H37V639H267V572H184V226Q184 131 226 93T350 54Q431 54 473 92T516 225V572H433V639ZM259
671Q237 671 222 686T206 723Q206 744 221 759T259 775Q280 775 295 760T311 723Q311 701 296 686T259 671ZM442 671Q421 671 406 686T390 723Q390 744 405 759T442 775Q464 775 479 760T495 723Q495 701 480 686T442 671Z" />
<glyph unicode="&#xdd;" glyph-name="Yacute" horiz-adv-x="606" d="M30 639H247V572H172L306 316L443 572H364V639H576V572H527L347 247V63H430V0H177V63H260V246L79 572H30V639ZM323 796H444L335 685H278L323 796Z" />
<glyph unicode="&#xde;" glyph-name="Thorn" horiz-adv-x="577" d="M35 639H283V572H188V494H345Q436 494 485 447T534 322Q534 237 478 195T328 152H188V63H283V0H35V63H101V572H35V639ZM318 222Q387 222 417 247T448 323Q448 372 421 396T335 420H188V222H318Z" />
<glyph unicode="&#xdf;" glyph-name="germandbls" horiz-adv-x="587" d="M28 479H100V481Q100 533 116 570T160 632T226 668T308 680Q336 680 366 674T423 652T466 609T483 539Q483 502 460 473T409 420T358 377T335 342Q335 326 342 318T368 302Q380 297 395
291T425 280T453 269T475 259Q510 240 530 212T551 135Q551 62 509 26T388 -11Q341 -11 308 0T248 34V135H322V61Q347 55 379 55Q417 55 444 72T472 131Q472 149 464 164T437 191Q417 203 390 212T328 237Q293 252 276 273T258 330Q258 364 280 389T329 437T378
486T401 545Q401 577 377 597T306 618Q247 618 216 583T184 480V0H28V63H100V417H28V479Z" />
<glyph unicode="&#xe0;" glyph-name="agrave" d="M70 434Q79 443 93 453T128 471T175 485T235 491Q328 491 370 443T414 313V104Q414 79 422 67T458 55Q464 55 468 55T479 56V7Q472 4 464 1Q449 -4 425 -4Q386 -4 360 16T330 94Q316 40 276 14T179 -13Q116 -13
77 20T37 114V115Q37 154 53 179T97 219T159 244T233 263Q262 270 280 277T310 293T325 313T330 342V344Q330 379 305 404T223 430Q201 430 182 426T146 416V338H70V434ZM209 45Q231 45 252 54T291 81T319 125T330 186V257Q314 243 290 233T240 213Q207 201 185
193T149 175T129 155T123 125V120Q123 84 144 65T209 45ZM104 673H223L280 539H223L104 673Z" />
<glyph unicode="&#xe1;" glyph-name="aacute" d="M70 434Q79 443 93 453T128 471T175 485T235 491Q328 491 370 443T414 313V104Q414 79 422 67T458 55Q464 55 468 55T479 56V7Q472 4 464 1Q449 -4 425 -4Q386 -4 360 16T330 94Q316 40 276 14T179 -13Q116 -13
77 20T37 114V115Q37 154 53 179T97 219T159 244T233 263Q262 270 280 277T310 293T325 313T330 342V344Q330 379 305 404T223 430Q201 430 182 426T146 416V338H70V434ZM209 45Q231 45 252 54T291 81T319 125T330 186V257Q314 243 290 233T240 213Q207 201 185
193T149 175T129 155T123 125V120Q123 84 144 65T209 45ZM255 673H374L255 539H198L255 673Z" />
<glyph unicode="&#xe2;" glyph-name="acircumflex" d="M70 434Q79 443 93 453T128 471T175 485T235 491Q328 491 370 443T414 313V104Q414 79 422 67T458 55Q464 55 468 55T479 56V7Q472 4 464 1Q449 -4 425 -4Q386 -4 360 16T330 94Q316 40 276 14T179 -13Q116
-13 77 20T37 114V115Q37 154 53 179T97 219T159 244T233 263Q262 270 280 277T310 293T325 313T330 342V344Q330 379 305 404T223 430Q201 430 182 426T146 416V338H70V434ZM209 45Q231 45 252 54T291 81T319 125T330 186V257Q314 243 290 233T240 213Q207 201
185 193T149 175T129 155T123 125V120Q123 84 144 65T209 45ZM191 673H295L383 539H322L243 616L164 539H103L191 673Z" />
<glyph unicode="&#xe3;" glyph-name="atilde" d="M70 434Q79 443 93 453T128 471T175 485T235 491Q328 491 370 443T414 313V104Q414 79 422 67T458 55Q464 55 468 55T479 56V7Q472 4 464 1Q449 -4 425 -4Q386 -4 360 16T330 94Q316 40 276 14T179 -13Q116 -13
77 20T37 114V115Q37 154 53 179T97 219T159 244T233 263Q262 270 280 277T310 293T325 313T330 342V344Q330 379 305 404T223 430Q201 430 182 426T146 416V338H70V434ZM209 45Q231 45 252 54T291 81T319 125T330 186V257Q314 243 290 233T240 213Q207 201 185
193T149 175T129 155T123 125V120Q123 84 144 65T209 45ZM109 559Q105 580 106 599T116 634T138 659T176 669Q196 669 212 664T241 652T266 641T289 635Q305 635 308 644T314 673H357Q361 652 360 633T352 598T331 573T295 563Q278 563 263 568T234 580T205 591T178
597Q163 597 159 588T152 559H109V559Z" />
<glyph unicode="&#xe4;" glyph-name="adieresis" d="M70 434Q79 443 93 453T128 471T175 485T235 491Q328 491 370 443T414 313V104Q414 79 422 67T458 55Q464 55 468 55T479 56V7Q472 4 464 1Q449 -4 425 -4Q386 -4 360 16T330 94Q316 40 276 14T179 -13Q116
-13 77 20T37 114V115Q37 154 53 179T97 219T159 244T233 263Q262 270 280 277T310 293T325 313T330 342V344Q330 379 305 404T223 430Q201 430 182 426T146 416V338H70V434ZM209 45Q231 45 252 54T291 81T319 125T330 186V257Q314 243 290 233T240 213Q207 201
185 193T149 175T129 155T123 125V120Q123 84 144 65T209 45ZM157 551Q135 551 120 566T104 603Q104 624 119 639T157 655Q178 655 193 640T209 603Q209 581 194 566T157 551ZM329 551Q308 551 293 566T277 603Q277 624 292 639T329 655Q351 655 366 640T382 603Q382
581 367 566T329 551Z" />
<glyph unicode="&#xe5;" glyph-name="aring" d="M70 434Q79 443 93 453T128 471T175 485T235 491Q328 491 370 443T414 313V104Q414 79 422 67T458 55Q464 55 468 55T479 56V7Q472 4 464 1Q449 -4 425 -4Q386 -4 360 16T330 94Q316 40 276 14T179 -13Q116 -13
77 20T37 114V115Q37 154 53 179T97 219T159 244T233 263Q262 270 280 277T310 293T325 313T330 342V344Q330 379 305 404T223 430Q201 430 182 426T146 416V338H70V434ZM209 45Q231 45 252 54T291 81T319 125T330 186V257Q314 243 290 233T240 213Q207 201 185
193T149 175T129 155T123 125V120Q123 84 144 65T209 45ZM239 585Q259 585 272 598T285 634Q285 656 272 670T239 684Q220 684 207 670T194 634Q194 611 207 598T239 585ZM239 544Q200 544 174 570T148 634Q148 672 174 698T239 725Q258 725 275 718T304 699T324
670T331 634Q331 596 305 570T239 544Z" />
<glyph unicode="&#xe6;" glyph-name="ae" horiz-adv-x="789" d="M183 -13Q113 -13 73 20T32 114V115Q32 154 48 179T92 219T154 244T228 263Q257 270 275 277T305 293T320 313T325 342V344Q325 379 300 404T218 430Q196 430 177 426T141 416V338H65V434Q74 443
88 453T123 471T170 485T230 491Q293 491 329 469T380 404Q406 445 448 468T548 491Q602 491 639 474T700 429T734 365T745 289Q745 252 738 220H410Q411 174 422 143T455 92T507 64T578 55Q629 55 670 67T732 94V40Q718 21 676 5T568 -11Q487 -11 430 23T345 125Q333
50 291 19T183 -13ZM548 430Q488 430 450 389T410 273H669V283Q669 360 635 395T548 430ZM204 45Q226 45 248 54T287 81T314 125T325 186V257Q309 243 285 233T235 213Q202 201 180 193T144 175T124 155T118 125V120Q118 84 139 65T204 45Z" />
<glyph unicode="&#xe7;" glyph-name="ccedilla" horiz-adv-x="475" d="M341 422Q325 426 307 428T267 431Q237 431 210 422T163 393T130 342T118 268V232Q118 138 158 97T274 55Q297 55 319 60T360 72T396 88T424 104V42Q408 25 368 7T265 -11H252V-39Q298 -44
316 -65T335 -115Q335 -150 310 -168T241 -187Q215 -187 198 -181T172 -167V-127Q180 -130 192 -133T221 -137Q265 -137 265 -110Q265 -97 253 -87T198 -76V-3Q183 0 170 6Q127 23 97 55T49 135T32 242V243Q32 311 52 358T106 434T180 477T263 491Q330 491 365
476T416 446V344H341V422Z" />
<glyph unicode="&#xe8;" glyph-name="egrave" horiz-adv-x="497" d="M281 -11Q226 -11 181 5T104 52T55 131T37 241V242Q37 299 53 345T99 423T170 473T261 491Q315 491 352 474T413 429T447 365T458 289Q458 252 451 220H123Q124 174 135 143T168 92T220 64T291
55Q342 55 383 67T445 94V40Q431 21 389 5T281 -11ZM261 430Q201 430 163 389T123 273H382V283Q382 360 348 395T261 430ZM128 673H247L304 539H247L128 673Z" />
<glyph unicode="&#xe9;" glyph-name="eacute" horiz-adv-x="497" d="M281 -11Q226 -11 181 5T104 52T55 131T37 241V242Q37 299 53 345T99 423T170 473T261 491Q315 491 352 474T413 429T447 365T458 289Q458 252 451 220H123Q124 174 135 143T168 92T220 64T291
55Q342 55 383 67T445 94V40Q431 21 389 5T281 -11ZM261 430Q201 430 163 389T123 273H382V283Q382 360 348 395T261 430ZM283 673H402L283 539H226L283 673Z" />
<glyph unicode="&#xea;" glyph-name="ecircumflex" horiz-adv-x="497" d="M281 -11Q226 -11 181 5T104 52T55 131T37 241V242Q37 299 53 345T99 423T170 473T261 491Q315 491 352 474T413 429T447 365T458 289Q458 252 451 220H123Q124 174 135 143T168 92T220
64T291 55Q342 55 383 67T445 94V40Q431 21 389 5T281 -11ZM261 430Q201 430 163 389T123 273H382V283Q382 360 348 395T261 430ZM207 673H311L399 539H338L259 616L180 539H119L207 673Z" />
<glyph unicode="&#xeb;" glyph-name="edieresis" horiz-adv-x="497" d="M281 -11Q226 -11 181 5T104 52T55 131T37 241V242Q37 299 53 345T99 423T170 473T261 491Q315 491 352 474T413 429T447 365T458 289Q458 252 451 220H123Q124 174 135 143T168 92T220 64T291
55Q342 55 383 67T445 94V40Q431 21 389 5T281 -11ZM261 430Q201 430 163 389T123 273H382V283Q382 360 348 395T261 430ZM172 551Q150 551 135 566T119 603Q119 624 134 639T172 655Q193 655 208 640T224 603Q224 581 209 566T172 551ZM344 551Q323 551 308 566T292
603Q292 624 307 639T344 655Q366 655 381 640T397 603Q397 581 382 566T344 551Z" />
<glyph unicode="&#xec;" glyph-name="igrave" horiz-adv-x="282" d="M33 479H183V63H249V0H33V63H99V406H33V479ZM243 673H362L419 539H362L243 673Z" />
<glyph unicode="&#xed;" glyph-name="iacute" horiz-adv-x="282" d="M33 479H183V63H249V0H33V63H99V406H33V479ZM402 673H521L402 539H345L402 673Z" />
<glyph unicode="&#xee;" glyph-name="icircumflex" horiz-adv-x="282" d="M33 479H183V63H249V0H33V63H99V406H33V479ZM330 673H434L522 539H461L382 616L303 539H242L330 673Z" />
<glyph unicode="&#xef;" glyph-name="idieresis" horiz-adv-x="282" d="M47 551Q25 551 10 566T-6 603Q-6 624 9 639T47 655Q68 655 83 640T99 603Q99 581 84 566T47 551ZM196 551Q175 551 160 566T144 603Q144 624 159 639T196 655Q218 655 233 640T249 603Q249
581 234 566T196 551ZM28 479H178V63H244V0H28V63H94V406H28V479Z" />
<glyph unicode="&#xf0;" glyph-name="eth" horiz-adv-x="548" d="M88 556L205 601Q176 621 146 637T85 668V673H213Q228 665 245 655T283 631L379 668L402 622L331 594Q363 567 394 534T449 459T487 370T502 265V246Q502 181 483 133T432 52T357 5T267 -11Q220
-11 177 4T102 52T51 132T32 245V246Q32 302 48 346T93 422T159 469T239 486Q287 486 320 469T379 422L380 423Q357 464 325 499T254 565L111 510L88 556ZM267 49Q298 49 325 59T372 91T404 147T416 232V270Q416 345 375 387T267 430Q201 430 160 388T118 270V232Q118
182 129 148T161 91T209 59T267 49Z" />
<glyph unicode="&#xf1;" glyph-name="ntilde" horiz-adv-x="596" d="M349 63H422V340Q422 421 328 421Q297 421 270 411T224 381T192 332T179 265V63H255V0H33V63H95V406H33V479H159Q165 462 169 443Q173 426 176 406T179 362V348Q185 383 201 409T240 454T291
481T351 491Q421 491 463 450T506 327V63H563V0H349V63ZM163 559Q159 580 160 599T170 634T192 659T230 669Q250 669 266 664T295 652T320 641T343 635Q359 635 362 644T368 673H411Q415 652 414 633T406 598T385 573T349 563Q332 563 317 568T288 580T259 591T232
597Q217 597 213 588T206 559H163V559Z" />
<glyph unicode="&#xf2;" glyph-name="ograve" horiz-adv-x="544" d="M272 49Q303 49 330 59T378 91T409 147T421 232V270Q421 345 381 387T272 430Q204 430 164 388T123 270V232Q123 182 134 148T166 91T213 59T272 49ZM272 -11Q224 -11 182 4T107 52T56 132T37
245V246Q37 302 54 347T101 424T175 473T272 491Q325 491 368 474T442 425T490 348T507 247V246Q507 181 489 133T438 52T363 5T272 -11ZM133 673H252L309 539H252L133 673Z" />
<glyph unicode="&#xf3;" glyph-name="oacute" horiz-adv-x="544" d="M272 49Q303 49 330 59T378 91T409 147T421 232V270Q421 345 381 387T272 430Q204 430 164 388T123 270V232Q123 182 134 148T166 91T213 59T272 49ZM272 -11Q224 -11 182 4T107 52T56 132T37
245V246Q37 302 54 347T101 424T175 473T272 491Q325 491 368 474T442 425T490 348T507 247V246Q507 181 489 133T438 52T363 5T272 -11ZM292 673H411L292 539H235L292 673Z" />
<glyph unicode="&#xf4;" glyph-name="ocircumflex" horiz-adv-x="544" d="M272 49Q303 49 330 59T378 91T409 147T421 232V270Q421 345 381 387T272 430Q204 430 164 388T123 270V232Q123 182 134 148T166 91T213 59T272 49ZM272 -11Q224 -11 182 4T107 52T56
132T37 245V246Q37 302 54 347T101 424T175 473T272 491Q325 491 368 474T442 425T490 348T507 247V246Q507 181 489 133T438 52T363 5T272 -11ZM220 673H324L412 539H351L272 616L193 539H132L220 673Z" />
<glyph unicode="&#xf5;" glyph-name="otilde" horiz-adv-x="544" d="M272 49Q303 49 330 59T378 91T409 147T421 232V270Q421 345 381 387T272 430Q204 430 164 388T123 270V232Q123 182 134 148T166 91T213 59T272 49ZM272 -11Q224 -11 182 4T107 52T56 132T37
245V246Q37 302 54 347T101 424T175 473T272 491Q325 491 368 474T442 425T490 348T507 247V246Q507 181 489 133T438 52T363 5T272 -11ZM147 559Q143 580 144 599T154 634T176 659T214 669Q234 669 250 664T279 652T304 641T327 635Q343 635 346 644T352 673H395Q399
652 398 633T390 598T369 573T333 563Q316 563 301 568T272 580T243 591T216 597Q201 597 197 588T190 559H147V559Z" />
<glyph unicode="&#xf6;" glyph-name="odieresis" horiz-adv-x="544" d="M272 49Q303 49 330 59T378 91T409 147T421 232V270Q421 345 381 387T272 430Q204 430 164 388T123 270V232Q123 182 134 148T166 91T213 59T272 49ZM272 -11Q224 -11 182 4T107 52T56 132T37
245V246Q37 302 54 347T101 424T175 473T272 491Q325 491 368 474T442 425T490 348T507 247V246Q507 181 489 133T438 52T363 5T272 -11ZM186 551Q164 551 149 566T133 603Q133 624 148 639T186 655Q207 655 222 640T238 603Q238 581 223 566T186 551ZM358 551Q337
551 322 566T306 603Q306 624 321 639T358 655Q380 655 395 640T411 603Q411 581 396 566T358 551Z" />
<glyph unicode="&#xf7;" glyph-name="divide" horiz-adv-x="486" d="M427 351V279H49V351H427ZM238 102Q215 102 197 119T179 160Q179 184 197 201T238 219Q263 219 280 202T297 160Q297 136 280 119T238 102ZM238 410Q215 410 197 427T179 468Q179 492 197 509T238
527Q263 527 280 510T297 468Q297 444 280 427T238 410Z" />
<glyph unicode="&#xf8;" glyph-name="oslash" horiz-adv-x="544" d="M267 -11Q190 -11 132 27L96 -19H30L92 61Q64 93 48 138T32 245V246Q32 302 49 347T96 424T170 473T267 491Q344 491 400 454L436 500H502L440 421Q470 389 486 345T502 247V246Q502 181 484
133T433 52T358 5T267 -11ZM267 49Q298 49 325 59T373 91T404 147T416 232V270Q416 327 396 364L171 77Q190 62 214 56T267 49ZM118 232Q118 195 123 168T138 119L361 404Q323 430 267 430Q199 430 159 388T118 270V232Z" />
<glyph unicode="&#xf9;" glyph-name="ugrave" horiz-adv-x="593" d="M434 0Q428 17 424 36Q420 53 417 73T414 117V123Q408 91 393 66T356 23T307 -3T252 -12Q177 -12 134 32T90 173V406H33V479H174V160Q174 103 198 79T270 54Q301 54 327 65T373 97T403 147T414
212V406H338V479H498V63H560V0H434V0ZM146 673H265L322 539H265L146 673Z" />
<glyph unicode="&#xfa;" glyph-name="uacute" horiz-adv-x="593" d="M434 0Q428 17 424 36Q420 53 417 73T414 117V123Q408 91 393 66T356 23T307 -3T252 -12Q177 -12 134 32T90 173V406H33V479H174V160Q174 103 198 79T270 54Q301 54 327 65T373 97T403 147T414
212V406H338V479H498V63H560V0H434V0ZM302 673H421L302 539H245L302 673Z" />
<glyph unicode="&#xfb;" glyph-name="ucircumflex" horiz-adv-x="593" d="M434 0Q428 17 424 36Q420 53 417 73T414 117V123Q408 91 393 66T356 23T307 -3T252 -12Q177 -12 134 32T90 173V406H33V479H174V160Q174 103 198 79T270 54Q301 54 327 65T373 97T403
147T414 212V406H338V479H498V63H560V0H434V0ZM233 673H337L425 539H364L285 616L206 539H145L233 673Z" />
<glyph unicode="&#xfc;" glyph-name="udieresis" horiz-adv-x="593" d="M434 0Q428 17 424 36Q420 53 417 73T414 117V123Q408 91 393 66T356 23T307 -3T252 -12Q177 -12 134 32T90 173V406H33V479H174V160Q174 103 198 79T270 54Q301 54 327 65T373 97T403 147T414
212V406H338V479H498V63H560V0H434V0ZM199 551Q177 551 162 566T146 603Q146 624 161 639T199 655Q220 655 235 640T251 603Q251 581 236 566T199 551ZM371 551Q350 551 335 566T319 603Q319 624 334 639T371 655Q393 655 408 640T424 603Q424 581 409 566T371
551Z" />
<glyph unicode="&#xfd;" glyph-name="yacute" horiz-adv-x="564" d="M330 479H539V406H486L335 -6Q320 -46 305 -74T272 -121T229 -147T174 -156Q136 -156 112 -146T74 -122V-76Q93 -82 114 -86T161 -90Q201 -90 224 -73T259 -26L269 0H231L77 406H25V479H239V406H165L289
58L408 406H330V479ZM304 673H423L304 539H247L304 673Z" />
<glyph unicode="&#xfe;" glyph-name="thorn" horiz-adv-x="582" d="M335 -11Q265 -11 221 23T159 114V-87H235V-146H13V-87H75V606H13V673H159V357Q176 417 223 454T342 491Q388 491 424 474T486 424T524 347T537 248V247Q537 183 522 135T479 55T414 6T335 -11ZM316
51Q378 51 414 94T451 234V270Q451 342 417 383T316 424Q285 424 257 414T207 382T172 331T159 262V242Q159 191 172 155T206 96T256 62T316 51Z" />
<glyph unicode="&#xff;" glyph-name="ydieresis" horiz-adv-x="564" d="M330 479H539V406H486L335 -6Q320 -46 305 -74T272 -121T229 -147T174 -156Q136 -156 112 -146T74 -122V-76Q93 -82 114 -86T161 -90Q201 -90 224 -73T259 -26L269 0H231L77 406H25V479H239V406H165L289
58L408 406H330V479ZM198 551Q176 551 161 566T145 603Q145 624 160 639T198 655Q219 655 234 640T250 603Q250 581 235 566T198 551ZM370 551Q349 551 334 566T318 603Q318 624 333 639T370 655Q392 655 407 640T423 603Q423 581 408 566T370 551Z" />
<glyph unicode="&#x100;" glyph-name="Amacron" horiz-adv-x="661" d="M414 63H494L455 189H200L160 63H242V0H30V63H78L264 639H398L583 63H631V0H414V63ZM223 262H432L328 598L223 262ZM211 765H447V699H211V765Z" />
<glyph unicode="&#x101;" glyph-name="amacron" d="M70 434Q79 443 93 453T128 471T175 485T235 491Q328 491 370 443T414 313V104Q414 79 422 67T458 55Q464 55 468 55T479 56V7Q472 4 464 1Q449 -4 425 -4Q386 -4 360 16T330 94Q316 40 276 14T179 -13Q116 -13
77 20T37 114V115Q37 154 53 179T97 219T159 244T233 263Q262 270 280 277T310 293T325 313T330 342V344Q330 379 305 404T223 430Q201 430 182 426T146 416V338H70V434ZM209 45Q231 45 252 54T291 81T319 125T330 186V257Q314 243 290 233T240 213Q207 201 185
193T149 175T129 155T123 125V120Q123 84 144 65T209 45ZM125 628H361V562H125V628Z" />
<glyph unicode="&#x102;" glyph-name="Abreve" horiz-adv-x="661" d="M414 63H494L455 189H200L160 63H242V0H30V63H78L264 639H398L583 63H631V0H414V63ZM223 262H432L328 598L223 262ZM438 790Q439 770 434 749T417 712T383 685T329 674Q297 674 276 684T242
711T224 748T220 790H270Q271 770 283 755T329 739Q364 739 375 754T388 790H438Z" />
<glyph unicode="&#x103;" glyph-name="abreve" d="M70 434Q79 443 93 453T128 471T175 485T235 491Q328 491 370 443T414 313V104Q414 79 422 67T458 55Q464 55 468 55T479 56V7Q472 4 464 1Q449 -4 425 -4Q386 -4 360 16T330 94Q316 40 276 14T179 -13Q116 -13
77 20T37 114V115Q37 154 53 179T97 219T159 244T233 263Q262 270 280 277T310 293T325 313T330 342V344Q330 379 305 404T223 430Q201 430 182 426T146 416V338H70V434ZM209 45Q231 45 252 54T291 81T319 125T330 186V257Q314 243 290 233T240 213Q207 201 185
193T149 175T129 155T123 125V120Q123 84 144 65T209 45ZM359 673Q361 649 355 625T335 581T298 549T242 537Q210 537 187 549T150 580T130 624T126 673H180Q179 645 193 624T242 602Q278 602 292 623T305 673H359Z" />
<glyph unicode="&#x104;" glyph-name="Aogonek" horiz-adv-x="661" d="M569 -155Q527 -155 507 -135T486 -83Q486 -55 504 -35T545 0H409V63H489L450 189H195L155 63H237V0H25V63H73L259 639H393L578 63H626V7Q590 -11 576 -35T562 -72Q562 -97 592 -97Q608 -97
622 -90V-137Q616 -145 602 -150T569 -155ZM218 262H427L323 598L218 262Z" />
<glyph unicode="&#x105;" glyph-name="aogonek" d="M65 434Q74 443 88 453T123 471T170 485T230 491Q323 491 365 443T409 313V104Q409 79 417 67T453 55H463Q468 55 474 56V7Q449 -4 434 -15T410 -37T399 -56T396 -71Q396 -100 430 -100Q441 -100 449 -98T464
-92V-137Q458 -145 445 -150T413 -155Q371 -155 351 -136T330 -85Q330 -54 352 -34T403 -3Q371 1 350 22T325 94Q311 40 271 14T174 -13Q111 -13 72 20T32 114V115Q32 154 48 179T92 219T154 244T228 263Q257 270 275 277T305 293T320 313T325 342V344Q325 379
300 404T218 430Q196 430 177 426T141 416V338H65V434ZM204 45Q226 45 247 54T286 81T314 125T325 186V257Q309 243 285 233T235 213Q202 201 180 193T144 175T124 155T118 125V120Q118 84 139 65T204 45Z" />
<glyph unicode="&#x106;" glyph-name="Cacute" horiz-adv-x="596" d="M461 558Q435 567 406 572T342 578Q288 578 249 562T185 516T148 444T136 351V311Q136 186 189 121T351 56Q383 56 413 63T471 82V180H545V61Q520 33 470 9T345 -15Q279 -15 224 7T130 73T69
179T47 324V326Q47 401 66 461T121 564T212 630T336 653Q415 653 463 632T535 586V473H461V558ZM339 796H460L351 685H294L339 796Z" />
<glyph unicode="&#x107;" glyph-name="cacute" horiz-adv-x="475" d="M346 422Q330 426 312 428T272 431Q242 431 215 422T168 393T135 342T123 268V232Q123 138 163 97T279 55Q302 55 324 60T365 72T401 88T429 104V42Q413 25 373 7T270 -11Q218 -11 175 6T102
55T54 135T37 242V243Q37 311 57 358T111 434T185 477T268 491Q335 491 370 476T421 446V344H346V422ZM283 673H402L283 539H226L283 673Z" />
<glyph unicode="&#x108;" glyph-name="Ccircumflex" horiz-adv-x="596" d="M461 558Q435 567 406 572T342 578Q288 578 249 562T185 516T148 444T136 351V311Q136 186 189 121T351 56Q383 56 413 63T471 82V180H545V61Q520 33 470 9T345 -15Q279 -15 224 7T130
73T69 179T47 324V326Q47 401 66 461T121 564T212 630T336 653Q415 653 463 632T535 586V473H461V558ZM406 685L331 738L256 685H194L278 796H384L468 685H406Z" />
<glyph unicode="&#x109;" glyph-name="ccircumflex" horiz-adv-x="475" d="M346 422Q330 426 312 428T272 431Q242 431 215 422T168 393T135 342T123 268V232Q123 138 163 97T279 55Q302 55 324 60T365 72T401 88T429 104V42Q413 25 373 7T270 -11Q218 -11 175
6T102 55T54 135T37 242V243Q37 311 57 358T111 434T185 477T268 491Q335 491 370 476T421 446V344H346V422ZM211 673H315L403 539H342L263 616L184 539H123L211 673Z" />
<glyph unicode="&#x10a;" glyph-name="Cdotaccent" horiz-adv-x="596" d="M461 558Q435 567 406 572T342 578Q288 578 249 562T185 516T148 444T136 351V311Q136 186 189 121T351 56Q383 56 413 63T471 82V180H545V61Q520 33 470 9T345 -15Q279 -15 224 7T130
73T69 179T47 324V326Q47 401 66 461T121 564T212 630T336 653Q415 653 463 632T535 586V473H461V558ZM331 682Q308 682 292 697T276 736Q276 759 292 775T331 791Q354 791 370 775T386 736Q386 713 370 698T331 682Z" />
<glyph unicode="&#x10b;" glyph-name="cdotaccent" horiz-adv-x="475" d="M346 422Q330 426 312 428T272 431Q242 431 215 422T168 393T135 342T123 268V232Q123 138 163 97T279 55Q302 55 324 60T365 72T401 88T429 104V42Q413 25 373 7T270 -11Q218 -11 175
6T102 55T54 135T37 242V243Q37 311 57 358T111 434T185 477T268 491Q335 491 370 476T421 446V344H346V422ZM263 551Q240 551 224 566T208 605Q208 628 224 644T263 660Q286 660 302 644T318 605Q318 582 302 567T263 551Z" />
<glyph unicode="&#x10c;" glyph-name="Ccaron" horiz-adv-x="596" d="M461 558Q435 567 406 572T342 578Q288 578 249 562T185 516T148 444T136 351V311Q136 186 189 121T351 56Q383 56 413 63T471 82V180H545V61Q520 33 470 9T345 -15Q279 -15 224 7T130 73T69
179T47 324V326Q47 401 66 461T121 564T212 630T336 653Q415 653 463 632T535 586V473H461V558ZM256 796L331 743L406 796H468L384 685H278L194 796H256Z" />
<glyph unicode="&#x10d;" glyph-name="ccaron" horiz-adv-x="475" d="M346 422Q330 426 312 428T272 431Q242 431 215 422T168 393T135 342T123 268V232Q123 138 163 97T279 55Q302 55 324 60T365 72T401 88T429 104V42Q413 25 373 7T270 -11Q218 -11 175 6T102
55T54 135T37 242V243Q37 311 57 358T111 434T185 477T268 491Q335 491 370 476T421 446V344H346V422ZM184 673L263 596L342 673H403L315 539H211L123 673H184Z" />
<glyph unicode="&#x10e;" glyph-name="Dcaron" horiz-adv-x="660" d="M40 639H343Q413 639 464 618T548 556T597 459T613 331V329Q613 171 542 86T324 0H40V63H106V572H40V639ZM313 69Q371 69 411 85T476 133T512 211T524 315V355Q524 402 516 441T486 507T427
550T333 565H193V69H313ZM241 796L316 743L391 796H453L369 685H263L179 796H241Z" />
<glyph unicode="&#x10f;" glyph-name="dcaron" horiz-adv-x="597" d="M340 673H502V63H564V0H438Q432 17 428 36Q424 53 421 74T418 120Q401 58 357 23T243 -12Q196 -12 159 7T95 60T54 143T40 252V253Q40 311 56 355T101 430T165 475T243 490Q315 490 357 456T418
364V606H340V673ZM261 50Q292 50 320 62T370 96T405 152T418 228V246Q418 294 405 327T370 382T320 413T261 423Q199 423 163 387T126 266V230Q126 147 160 99T261 50ZM544 673H627L592 541H538L544 673Z" />
<glyph unicode="&#x110;" glyph-name="Dcroat" horiz-adv-x="660" d="M35 352H106V572H40V639H343Q413 639 464 618T548 556T597 459T613 331V329Q613 171 542 86T324 0H40V63H106V284H35V352ZM313 69Q371 69 411 85T476 133T512 211T524 315V355Q524 402 516
441T486 507T427 550T333 565H193V352H364V284H193V69H313Z" />
<glyph unicode="&#x111;" glyph-name="dcroat" horiz-adv-x="597" d="M238 -12Q191 -12 154 7T90 60T49 143T35 252V253Q35 311 51 355T96 430T160 475T238 490Q310 490 352 456T413 364V540H252V599H413V673H497V599H566V540H497V63H559V0H433Q427 17 423 36Q419
53 416 74T413 120Q396 58 352 23T238 -12ZM256 50Q287 50 315 62T365 96T400 152T413 228V246Q413 294 400 327T365 382T315 413T256 423Q194 423 158 387T121 266V230Q121 147 155 99T256 50Z" />
<glyph unicode="&#x112;" glyph-name="Emacron" horiz-adv-x="580" d="M448 565H193V353H452V282H193V70H458V166H532V0H40V63H106V572H40V639H522V473H448V565ZM180 765H416V699H180V765Z" />
<glyph unicode="&#x113;" glyph-name="emacron" horiz-adv-x="497" d="M281 -11Q226 -11 181 5T104 52T55 131T37 241V242Q37 299 53 345T99 423T170 473T261 491Q315 491 352 474T413 429T447 365T458 289Q458 252 451 220H123Q124 174 135 143T168 92T220 64T291
55Q342 55 383 67T445 94V40Q431 21 389 5T281 -11ZM261 430Q201 430 163 389T123 273H382V283Q382 360 348 395T261 430ZM140 628H376V562H140V628Z" />
<glyph unicode="&#x114;" glyph-name="Ebreve" horiz-adv-x="580" d="M448 565H193V353H452V282H193V70H458V166H532V0H40V63H106V572H40V639H522V473H448V565ZM413 790Q414 770 409 749T392 712T358 685T304 674Q272 674 251 684T217 711T199 748T195 790H245Q246
770 258 755T304 739Q339 739 350 754T363 790H413Z" />
<glyph unicode="&#x115;" glyph-name="ebreve" horiz-adv-x="497" d="M281 -11Q226 -11 181 5T104 52T55 131T37 241V242Q37 299 53 345T99 423T170 473T261 491Q315 491 352 474T413 429T447 365T458 289Q458 252 451 220H123Q124 174 135 143T168 92T220 64T291
55Q342 55 383 67T445 94V40Q431 21 389 5T281 -11ZM261 430Q201 430 163 389T123 273H382V283Q382 360 348 395T261 430ZM379 673Q381 649 375 625T355 581T318 549T262 537Q230 537 207 549T170 580T150 624T146 673H200Q199 645 213 624T262 602Q298 602 312
623T325 673H379Z" />
<glyph unicode="&#x116;" glyph-name="Edotaccent" horiz-adv-x="580" d="M448 565H193V353H452V282H193V70H458V166H532V0H40V63H106V572H40V639H522V473H448V565ZM304 682Q281 682 265 697T249 736Q249 759 265 775T304 791Q327 791 343 775T359 736Q359 713
343 698T304 682Z" />
<glyph unicode="&#x117;" glyph-name="edotaccent" horiz-adv-x="497" d="M281 -11Q226 -11 181 5T104 52T55 131T37 241V242Q37 299 53 345T99 423T170 473T261 491Q315 491 352 474T413 429T447 365T458 289Q458 252 451 220H123Q124 174 135 143T168 92T220
64T291 55Q342 55 383 67T445 94V40Q431 21 389 5T281 -11ZM261 430Q201 430 163 389T123 273H382V283Q382 360 348 395T261 430ZM262 551Q239 551 223 566T207 605Q207 628 223 644T262 660Q285 660 301 644T317 605Q317 582 301 567T262 551Z" />
<glyph unicode="&#x118;" glyph-name="Eogonek" horiz-adv-x="580" d="M443 565H188V353H447V282H188V70H453V166H527V0H475Q443 -17 431 -38T419 -72Q419 -97 449 -97Q465 -97 479 -90V-137Q473 -145 459 -150T426 -155Q384 -155 364 -135T343 -83Q343 -55 360
-35T401 0H35V63H101V572H35V639H517V473H443V565Z" />
<glyph unicode="&#x119;" glyph-name="eogonek" horiz-adv-x="497" d="M118 220Q119 174 130 143T163 92T215 64T286 55Q337 55 378 67T440 94V40Q434 30 415 19T377 -5T342 -35T326 -71Q326 -100 360 -100Q371 -100 379 -98T394 -92V-137Q388 -145 375 -150T343
-155Q301 -155 281 -136T260 -85Q260 -59 277 -40T318 -9Q308 -10 298 -10T276 -11Q221 -11 176 5T99 52T50 131T32 241V242Q32 299 48 345T94 423T165 473T256 491Q310 491 347 474T408 429T442 365T453 289Q453 252 446 220H118ZM256 430Q196 430 158 389T118
273H377V283Q377 360 343 395T256 430Z" />
<glyph unicode="&#x11a;" glyph-name="Ecaron" horiz-adv-x="580" d="M448 565H193V353H452V282H193V70H458V166H532V0H40V63H106V572H40V639H522V473H448V565ZM229 796L304 743L379 796H441L357 685H251L167 796H229Z" />
<glyph unicode="&#x11b;" glyph-name="ecaron" horiz-adv-x="497" d="M281 -11Q226 -11 181 5T104 52T55 131T37 241V242Q37 299 53 345T99 423T170 473T261 491Q315 491 352 474T413 429T447 365T458 289Q458 252 451 220H123Q124 174 135 143T168 92T220 64T291
55Q342 55 383 67T445 94V40Q431 21 389 5T281 -11ZM261 430Q201 430 163 389T123 273H382V283Q382 360 348 395T261 430ZM180 673L259 596L338 673H399L311 539H207L119 673H180Z" />
<glyph unicode="&#x11c;" glyph-name="Gcircumflex" horiz-adv-x="628" d="M359 325H568V64Q533 29 480 7T351 -15Q286 -15 230 6T134 70T70 176T47 322V324Q47 399 69 459T131 563T227 629T350 653Q422 653 468 635T542 591V473H470V560Q446 568 418 573T359
578Q253 578 195 518T136 349V309Q136 184 192 121T357 57Q392 57 423 64T481 82V258H359V325ZM411 685L336 738L261 685H199L283 796H389L473 685H411Z" />
<glyph unicode="&#x11d;" glyph-name="gcircumflex" horiz-adv-x="594" d="M260 -155Q219 -155 189 -150T138 -136T102 -117T79 -95V-27Q89 -36 103 -46T138 -66T187 -81T252 -87Q288 -87 317 -78T369 -51T403 -2T415 70V141Q398 81 353 52T238 22Q190 22 153
39T90 87T51 163T37 261V262Q37 314 53 356T96 428T161 474T241 490Q313 490 355 462T415 375Q416 395 419 414T426 448Q430 465 435 479H561V406H499V76Q499 17 481 -26T431 -98T356 -141T260 -155ZM256 83Q287 83 315 93T366 123T401 172T415 241V257Q415 299
403 330T369 382T319 413T260 423Q198 423 161 387T123 273V241Q123 166 156 125T256 83ZM229 673H333L421 539H360L281 616L202 539H141L229 673Z" />
<glyph unicode="&#x11e;" glyph-name="Gbreve" horiz-adv-x="628" d="M359 325H568V64Q533 29 480 7T351 -15Q286 -15 230 6T134 70T70 176T47 322V324Q47 399 69 459T131 563T227 629T350 653Q422 653 468 635T542 591V473H470V560Q446 568 418 573T359 578Q253
578 195 518T136 349V309Q136 184 192 121T357 57Q392 57 423 64T481 82V258H359V325ZM445 790Q446 770 441 749T424 712T390 685T336 674Q304 674 283 684T249 711T231 748T227 790H277Q278 770 290 755T336 739Q371 739 382 754T395 790H445Z" />
<glyph unicode="&#x11f;" glyph-name="gbreve" horiz-adv-x="594" d="M260 -155Q219 -155 189 -150T138 -136T102 -117T79 -95V-27Q89 -36 103 -46T138 -66T187 -81T252 -87Q288 -87 317 -78T369 -51T403 -2T415 70V141Q398 81 353 52T238 22Q190 22 153 39T90
87T51 163T37 261V262Q37 314 53 356T96 428T161 474T241 490Q313 490 355 462T415 375Q416 395 419 414T426 448Q430 465 435 479H561V406H499V76Q499 17 481 -26T431 -98T356 -141T260 -155ZM256 83Q287 83 315 93T366 123T401 172T415 241V257Q415 299 403 330T369
382T319 413T260 423Q198 423 161 387T123 273V241Q123 166 156 125T256 83ZM397 673Q399 649 393 625T373 581T336 549T280 537Q248 537 225 549T188 580T168 624T164 673H218Q217 645 231 624T280 602Q316 602 330 623T343 673H397Z" />
<glyph unicode="&#x120;" glyph-name="Gdotaccent" horiz-adv-x="628" d="M359 325H568V64Q533 29 480 7T351 -15Q286 -15 230 6T134 70T70 176T47 322V324Q47 399 69 459T131 563T227 629T350 653Q422 653 468 635T542 591V473H470V560Q446 568 418 573T359 578Q253
578 195 518T136 349V309Q136 184 192 121T357 57Q392 57 423 64T481 82V258H359V325ZM336 682Q313 682 297 697T281 736Q281 759 297 775T336 791Q359 791 375 775T391 736Q391 713 375 698T336 682Z" />
<glyph unicode="&#x121;" glyph-name="gdotaccent" horiz-adv-x="594" d="M260 -155Q219 -155 189 -150T138 -136T102 -117T79 -95V-27Q89 -36 103 -46T138 -66T187 -81T252 -87Q288 -87 317 -78T369 -51T403 -2T415 70V141Q398 81 353 52T238 22Q190 22 153 39T90
87T51 163T37 261V262Q37 314 53 356T96 428T161 474T241 490Q313 490 355 462T415 375Q416 395 419 414T426 448Q430 465 435 479H561V406H499V76Q499 17 481 -26T431 -98T356 -141T260 -155ZM256 83Q287 83 315 93T366 123T401 172T415 241V257Q415 299 403 330T369
382T319 413T260 423Q198 423 161 387T123 273V241Q123 166 156 125T256 83ZM281 551Q258 551 242 566T226 605Q226 628 242 644T281 660Q304 660 320 644T336 605Q336 582 320 567T281 551Z" />
<glyph unicode="&#x122;" glyph-name="Gcommaaccent" horiz-adv-x="628" d="M359 325H568V64Q533 29 480 7T351 -15Q286 -15 230 6T134 70T70 176T47 322V324Q47 399 69 459T131 563T227 629T350 653Q422 653 468 635T542 591V473H470V560Q446 568 418 573T359
578Q253 578 195 518T136 349V309Q136 184 192 121T357 57Q392 57 423 64T481 82V258H359V325ZM276 -179Q287 -154 292 -133T297 -93Q297 -79 296 -69T293 -49H376Q378 -56 378 -61T379 -73Q379 -104 368 -131T330 -179H276Z" />
<glyph unicode="&#x123;" glyph-name="gcommaaccent" horiz-adv-x="594" d="M260 -155Q219 -155 189 -150T138 -136T102 -117T79 -95V-27Q89 -36 103 -46T138 -66T187 -81T252 -87Q288 -87 317 -78T369 -51T403 -2T415 70V141Q398 81 353 52T238 22Q190 22 153
39T90 87T51 163T37 261V262Q37 314 53 356T96 428T161 474T241 490Q313 490 355 462T415 375Q416 395 419 414T426 448Q430 465 435 479H561V406H499V76Q499 17 481 -26T431 -98T356 -141T260 -155ZM256 83Q287 83 315 93T366 123T401 172T415 241V257Q415 299
403 330T369 382T319 413T260 423Q198 423 161 387T123 273V241Q123 166 156 125T256 83ZM338 686Q327 661 322 640T317 600Q317 586 318 576T321 556H238Q235 569 235 580Q235 611 246 638T284 686H338Z" />
<glyph unicode="&#x124;" glyph-name="Hcircumflex" horiz-adv-x="706" d="M430 63H513V289H193V63H276V0H40V63H106V572H40V639H276V572H193V362H513V572H430V639H666V572H600V63H666V0H430V63ZM428 685L353 738L278 685H216L300 796H406L490 685H428Z" />
<glyph unicode="&#x125;" glyph-name="hcircumflex" horiz-adv-x="596" d="M349 63H422V340Q422 421 328 421Q297 421 270 411T224 381T192 332T179 265V63H255V0H33V63H95V606H33V673H179V348Q185 383 201 409T240 454T291 481T351 491Q421 491 463 450T506 327V63H563V0H349V63ZM377
715L302 768L227 715H165L249 826H355L439 715H377Z" />
<glyph unicode="&#x126;" glyph-name="Hbar" horiz-adv-x="706" d="M425 63H508V289H188V63H271V0H35V63H101V445H9V504H101V572H35V639H271V572H188V504H508V572H425V639H661V572H595V504H687V445H595V63H661V0H425V63ZM508 362V445H188V362H508Z" />
<glyph unicode="&#x127;" glyph-name="hbar" horiz-adv-x="596" d="M22 599H90V673H174V599H336V540H174V348Q180 383 196 409T235 454T286 481T346 491Q416 491 458 450T501 327V63H558V0H344V63H417V340Q417 421 323 421Q292 421 265 411T219 381T187 332T174
265V63H250V0H28V63H90V540H22V599Z" />
<glyph unicode="&#x128;" glyph-name="Itilde" horiz-adv-x="313" d="M40 639H273V572H200V63H273V0H40V63H113V572H40V639ZM282 686Q278 707 280 726T290 761T313 786T351 796Q373 796 390 791T423 779T451 768T476 762Q492 762 495 771T501 800H544Q548 779
547 760T538 725T516 700T480 690Q462 690 445 695T413 707T382 718T351 724Q336 724 332 715T325 686H282V686Z" />
<glyph unicode="&#x129;" glyph-name="itilde" horiz-adv-x="282" d="M33 479H183V63H249V0H33V63H99V406H33V479ZM257 559Q253 580 254 599T264 634T286 659T324 669Q344 669 360 664T389 652T414 641T437 635Q453 635 456 644T462 673H505Q509 652 508 633T500
598T479 573T443 563Q426 563 411 568T382 580T353 591T326 597Q311 597 307 588T300 559H257V559Z" />
<glyph unicode="&#x12a;" glyph-name="Imacron" horiz-adv-x="313" d="M40 639H273V572H200V63H273V0H40V63H113V572H40V639ZM295 765H531V699H295V765Z" />
<glyph unicode="&#x12b;" glyph-name="imacron" horiz-adv-x="282" d="M18 628H219V562H18V628ZM28 479H178V63H244V0H28V63H94V406H28V479Z" />
<glyph unicode="&#x12c;" glyph-name="Ibreve" horiz-adv-x="313" d="M40 639H273V572H200V63H273V0H40V63H113V572H40V639ZM522 790Q523 770 518 749T501 712T467 685T413 674Q381 674 360 684T326 711T308 748T304 790H354Q355 770 367 755T413 739Q448 739
459 754T472 790H522Z" />
<glyph unicode="&#x12d;" glyph-name="ibreve" horiz-adv-x="282" d="M33 479H183V63H249V0H33V63H99V406H33V479ZM498 673Q500 649 494 625T474 581T437 549T381 537Q349 537 326 549T289 580T269 624T265 673H319Q318 645 332 624T381 602Q417 602 431 623T444
673H498Z" />
<glyph unicode="&#x12e;" glyph-name="Iogonek" horiz-adv-x="313" d="M35 639H268V572H195V63H268V0H213Q193 -17 185 -34T177 -70Q177 -81 184 -89T207 -97Q223 -97 237 -90V-137Q231 -145 217 -150T184 -155Q142 -155 122 -135T101 -83Q101 -57 115 -37T148
0H35V63H108V572H35V639Z" />
<glyph unicode="&#x12f;" glyph-name="iogonek" horiz-adv-x="282" d="M28 479H178V63H244V0H184Q158 -20 150 -39T141 -71Q141 -100 175 -100Q186 -100 194 -98T209 -92V-137Q203 -145 190 -150T158 -155Q116 -155 96 -136T75 -85Q75 -57 93 -35T133 0H28V63H94V406H28V479ZM130
551Q107 551 91 566T75 605Q75 628 91 644T130 660Q153 660 169 644T185 605Q185 582 169 567T130 551Z" />
<glyph unicode="&#x130;" glyph-name="Idotaccent" horiz-adv-x="313" d="M40 639H273V572H200V63H273V0H40V63H113V572H40V639ZM413 682Q390 682 374 697T358 736Q358 759 374 775T413 791Q436 791 452 775T468 736Q468 713 452 698T413 682Z" />
<glyph unicode="&#x131;" glyph-name="dotlessi" horiz-adv-x="282" d="M28 479H178V63H244V0H28V63H94V406H28V479Z" />
<glyph unicode="&#x132;" glyph-name="IJ" horiz-adv-x="691" d="M413 639H646V572H586V153Q586 76 548 32T428 -13Q391 -13 366 -5T325 16V71Q340 66 360 62T413 58Q458 58 478 83T499 159V572H413V639ZM35 639H268V572H195V63H268V0H35V63H108V572H35V639Z" />
<glyph unicode="&#x133;" glyph-name="ij" horiz-adv-x="517" d="M33 479H183V63H249V0H33V63H99V406H33V479ZM135 551Q112 551 96 566T80 605Q80 628 96 644T135 660Q158 660 174 644T190 605Q190 582 174 567T135 551ZM288 479H438V-33Q438 -67 429 -90T405
-127T369 -147T327 -153Q295 -153 275 -146T247 -130V-87Q256 -88 265 -88T291 -88Q326 -88 340 -80T354 -38V406H288V479ZM390 551Q367 551 351 566T335 605Q335 628 351 644T390 660Q413 660 429 644T445 605Q445 582 429 567T390 551Z" />
<glyph unicode="&#x134;" glyph-name="Jcircumflex" horiz-adv-x="404" d="M131 639H364V572H304V156Q304 79 265 35T141 -10Q103 -10 75 -1T32 21V76Q47 71 69 66T126 61Q217 61 217 162V572H131V639ZM321 685L246 738L171 685H109L193 796H299L383 685H321Z" />
<glyph unicode="&#x135;" glyph-name="jcircumflex" horiz-adv-x="262" d="M33 479H183V-33Q183 -67 174 -90T150 -127T114 -147T72 -153Q40 -153 20 -146T-8 -130V-87Q1 -88 10 -88T36 -88Q71 -88 85 -80T99 -38V406H33V479ZM329 673H433L521 539H460L381 616L302
539H241L329 673Z" />
<glyph unicode="&#x136;" glyph-name="Kcommaaccent" horiz-adv-x="633" d="M362 63H440L193 330V63H276V0H40V63H106V572H40V639H276V572H193V336L437 572H362V639H584V572H533L291 338L546 63H598V0H362V63ZM249 -179Q260 -154 265 -133T270 -93Q270 -79 269
-69T266 -49H349Q351 -56 351 -61T352 -73Q352 -104 341 -131T303 -179H249Z" />
<glyph unicode="&#x137;" glyph-name="kcommaaccent" horiz-adv-x="528" d="M179 244V63H257V0H33V63H95V606H33V673H179V259L371 479H472V406H394L265 258L427 63H495V0H380L179 244ZM204 -179Q215 -154 220 -133T225 -93Q225 -79 224 -69T221 -49H304Q306 -56
306 -61T307 -73Q307 -104 296 -131T258 -179H204Z" />
<glyph unicode="&#x139;" glyph-name="Lacute" horiz-adv-x="557" d="M40 639H281V572H193V70H443V166H517V0H40V63H106V572H40V639ZM415 796H536L427 685H370L415 796Z" />
<glyph unicode="&#x13a;" glyph-name="lacute" horiz-adv-x="282" d="M33 673H183V63H249V0H33V63H99V606H33V673ZM406 826H527L418 715H361L406 826Z" />
<glyph unicode="&#x13b;" glyph-name="Lcommaaccent" horiz-adv-x="557" d="M40 639H281V572H193V70H443V166H517V0H40V63H106V572H40V639ZM230 -179Q241 -154 246 -133T251 -93Q251 -79 250 -69T247 -49H330Q332 -56 332 -61T333 -73Q333 -104 322 -131T284 -179H230Z" />
<glyph unicode="&#x13c;" glyph-name="lcommaaccent" horiz-adv-x="282" d="M33 673H183V63H249V0H33V63H99V606H33V673ZM338 -179Q349 -154 354 -133T359 -93Q359 -79 358 -69T355 -49H438Q440 -56 440 -61T441 -73Q441 -104 430 -131T392 -179H338Z" />
<glyph unicode="&#x13d;" glyph-name="Lcaron" horiz-adv-x="557" d="M40 639H281V572H193V70H443V166H517V0H40V63H106V572H40V639ZM324 640H407L372 508H318L324 640Z" />
<glyph unicode="&#x13e;" glyph-name="lcaron" horiz-adv-x="282" d="M225 673H308L273 541H219L225 673ZM33 673H183V63H249V0H33V63H99V606H33V673Z" />
<glyph unicode="&#x13f;" glyph-name="Ldot" horiz-adv-x="557" d="M456 284Q433 284 415 301T397 342Q397 366 415 383T456 401Q481 401 498 384T515 342Q515 318 498 301T456 284ZM40 639H281V572H193V70H443V166H517V0H40V63H106V572H40V639Z" />
<glyph unicode="&#x140;" glyph-name="ldot" horiz-adv-x="362" d="M317 273Q294 273 276 290T258 331Q258 355 276 372T317 390Q342 390 359 373T376 331Q376 307 359 290T317 273ZM33 673H183V63H249V0H33V63H99V606H33V673Z" />
<glyph unicode="&#x141;" glyph-name="Lslash" horiz-adv-x="557" d="M35 639H276V572H188V329L391 445V371L188 255V70H438V166H512V0H35V63H101V205L28 163V237L101 279V572H35V639Z" />
<glyph unicode="&#x142;" glyph-name="lslash" horiz-adv-x="282" d="M28 673H178V432L244 480V408L178 360V63H244V0H28V63H94V300L26 251V323L94 372V606H28V673Z" />
<glyph unicode="&#x143;" glyph-name="Nacute" horiz-adv-x="712" d="M446 639H676V572H610V0H481L187 571V63H270V0H40V63H106V572H40V639H245L529 78V572H446V639ZM375 796H496L387 685H330L375 796Z" />
<glyph unicode="&#x144;" glyph-name="nacute" horiz-adv-x="596" d="M349 63H422V340Q422 421 328 421Q297 421 270 411T224 381T192 332T179 265V63H255V0H33V63H95V406H33V479H159Q165 462 169 443Q173 426 176 406T179 362V348Q185 383 201 409T240 454T291
481T351 491Q421 491 463 450T506 327V63H563V0H349V63ZM308 673H427L308 539H251L308 673Z" />
<glyph unicode="&#x145;" glyph-name="Ncommaaccent" horiz-adv-x="712" d="M446 639H676V572H610V0H481L187 571V63H270V0H40V63H106V572H40V639H245L529 78V572H446V639ZM297 -179Q308 -154 313 -133T318 -93Q318 -79 317 -69T314 -49H397Q399 -56 399 -61T400
-73Q400 -104 389 -131T351 -179H297Z" />
<glyph unicode="&#x146;" glyph-name="ncommaaccent" horiz-adv-x="596" d="M349 63H422V340Q422 421 328 421Q297 421 270 411T224 381T192 332T179 265V63H255V0H33V63H95V406H33V479H159Q165 462 169 443Q173 426 176 406T179 362V348Q185 383 201 409T240
454T291 481T351 491Q421 491 463 450T506 327V63H563V0H349V63ZM228 -179Q239 -154 244 -133T249 -93Q249 -79 248 -69T245 -49H328Q330 -56 330 -61T331 -73Q331 -104 320 -131T282 -179H228Z" />
<glyph unicode="&#x147;" glyph-name="Ncaron" horiz-adv-x="712" d="M446 639H676V572H610V0H481L187 571V63H270V0H40V63H106V572H40V639H245L529 78V572H446V639ZM292 796L367 743L442 796H504L420 685H314L230 796H292Z" />
<glyph unicode="&#x148;" glyph-name="ncaron" horiz-adv-x="596" d="M349 63H422V340Q422 421 328 421Q297 421 270 411T224 381T192 332T179 265V63H255V0H33V63H95V406H33V479H159Q165 462 169 443Q173 426 176 406T179 362V348Q185 383 201 409T240 454T291
481T351 491Q421 491 463 450T506 327V63H563V0H349V63ZM209 673L288 596L367 673H428L340 539H236L148 673H209Z" />
<glyph unicode="&#x149;" glyph-name="napostrophe" horiz-adv-x="669" d="M422 63H495V340Q495 421 401 421Q370 421 343 411T297 381T265 332T252 265V63H328V0H106V63H168V406H106V479H232Q238 462 242 443Q246 426 249 406T252 362V348Q258 383 274 409T313
454T364 481T424 491Q494 491 536 450T579 327V63H636V0H422V63ZM214 441Q228 479 233 515T239 583Q239 597 238 611T233 639H324Q326 629 326 621T327 602Q327 555 311 516T265 441H214V441Z" />
<glyph unicode="&#x14a;" glyph-name="Eng" horiz-adv-x="716" d="M35 639H240L524 78V572H441V639H671V572H605V15Q605 -62 566 -106T442 -151Q404 -151 376 -142T333 -119V-67Q348 -72 370 -76T424 -81Q471 -81 494 -61T522 0H476L182 571V63H265V0H35V63H101V572H35V639Z"
/>
<glyph unicode="&#x14b;" glyph-name="eng" horiz-adv-x="578" d="M28 479H154Q160 462 164 443Q168 426 171 406T174 362V348Q180 383 196 409T235 454T286 481T346 491Q416 491 458 450T501 327V-10Q501 -52 490 -80T461 -124T421 -146T375 -153Q339 -153 319
-146T290 -130V-87Q292 -88 296 -88H313Q342 -88 362 -85T394 -73T411 -48T417 -5V340Q417 421 323 421Q292 421 265 411T219 381T187 332T174 265V63H250V0H28V63H90V406H28V479Z" />
<glyph unicode="&#x14c;" glyph-name="Omacron" horiz-adv-x="682" d="M341 56Q441 56 493 115T546 302V354Q546 403 534 444T497 515T433 561T341 578Q288 578 249 562T185 515T148 444T136 354V302Q136 174 188 115T341 56ZM341 -15Q278 -15 224 6T131 69T69
174T47 321V323Q47 398 66 459T123 563T215 629T341 653Q412 653 466 630T558 563T615 459T635 323V321Q635 237 613 174T552 69T459 6T341 -15ZM223 765H459V699H223V765Z" />
<glyph unicode="&#x14d;" glyph-name="omacron" horiz-adv-x="544" d="M272 49Q303 49 330 59T378 91T409 147T421 232V270Q421 345 381 387T272 430Q204 430 164 388T123 270V232Q123 182 134 148T166 91T213 59T272 49ZM272 -11Q224 -11 182 4T107 52T56 132T37
245V246Q37 302 54 347T101 424T175 473T272 491Q325 491 368 474T442 425T490 348T507 247V246Q507 181 489 133T438 52T363 5T272 -11ZM154 628H390V562H154V628Z" />
<glyph unicode="&#x14e;" glyph-name="Obreve" horiz-adv-x="682" d="M341 56Q441 56 493 115T546 302V354Q546 403 534 444T497 515T433 561T341 578Q288 578 249 562T185 515T148 444T136 354V302Q136 174 188 115T341 56ZM341 -15Q278 -15 224 6T131 69T69
174T47 321V323Q47 398 66 459T123 563T215 629T341 653Q412 653 466 630T558 563T615 459T635 323V321Q635 237 613 174T552 69T459 6T341 -15ZM450 790Q451 770 446 749T429 712T395 685T341 674Q309 674 288 684T254 711T236 748T232 790H282Q283 770 295 755T341
739Q376 739 387 754T400 790H450Z" />
<glyph unicode="&#x14f;" glyph-name="obreve" horiz-adv-x="544" d="M272 49Q303 49 330 59T378 91T409 147T421 232V270Q421 345 381 387T272 430Q204 430 164 388T123 270V232Q123 182 134 148T166 91T213 59T272 49ZM272 -11Q224 -11 182 4T107 52T56 132T37
245V246Q37 302 54 347T101 424T175 473T272 491Q325 491 368 474T442 425T490 348T507 247V246Q507 181 489 133T438 52T363 5T272 -11ZM388 673Q390 649 384 625T364 581T327 549T271 537Q239 537 216 549T179 580T159 624T155 673H209Q208 645 222 624T271 602Q307
602 321 623T334 673H388Z" />
<glyph unicode="&#x150;" glyph-name="Ohungarumlaut" horiz-adv-x="682" d="M341 56Q441 56 493 115T546 302V354Q546 403 534 444T497 515T433 561T341 578Q288 578 249 562T185 515T148 444T136 354V302Q136 174 188 115T341 56ZM341 -15Q278 -15 224 6T131
69T69 174T47 321V323Q47 398 66 459T123 563T215 629T341 653Q412 653 466 630T558 563T615 459T635 323V321Q635 237 613 174T552 69T459 6T341 -15ZM274 796H372L300 685H235L274 796ZM413 796H511L439 685H374L413 796Z" />
<glyph unicode="&#x151;" glyph-name="ohungarumlaut" horiz-adv-x="544" d="M272 49Q303 49 330 59T378 91T409 147T421 232V270Q421 345 381 387T272 430Q204 430 164 388T123 270V232Q123 182 134 148T166 91T213 59T272 49ZM272 -11Q224 -11 182 4T107 52T56
132T37 245V246Q37 302 54 347T101 424T175 473T272 491Q325 491 368 474T442 425T490 348T507 247V246Q507 181 489 133T438 52T363 5T272 -11ZM208 673H306L226 539H163L208 673ZM353 673H451L371 539H308L353 673Z" />
<glyph unicode="&#x152;" glyph-name="OE" horiz-adv-x="861" d="M331 0Q184 0 113 85T42 329V331Q42 402 58 459T107 556T191 617T312 639H798V473H724V564H499V353H728V282H499V71H734V166H808V0H331ZM129 315Q129 257 140 211T177 134T243 86T342 69H412V565H322Q265
565 228 550T169 508T138 441T129 355V315Z" />
<glyph unicode="&#x153;" glyph-name="oe" horiz-adv-x="869" d="M648 -11Q489 -11 446 125Q424 56 377 23T261 -11Q214 -11 173 4T100 52T51 132T32 245V246Q32 302 48 347T95 424T167 473T261 491Q335 491 381 456T447 358Q467 419 511 455T628 491Q682 491
719 474T780 429T814 365T825 289Q825 252 818 220H490Q491 174 502 143T535 92T587 64T658 55Q709 55 750 67T812 94V40Q798 21 756 5T648 -11ZM261 49Q292 49 318 59T363 91T393 147T404 232V270Q404 345 366 387T261 430Q195 430 157 388T118 270V232Q118 182
129 148T159 91T204 59T261 49ZM628 430Q568 430 530 389T490 273H749V283Q749 360 715 395T628 430Z" />
<glyph unicode="&#x154;" glyph-name="Racute" horiz-adv-x="594" d="M193 299V63H276V0H40V63H106V572H40V639H322Q426 639 477 589T528 454Q528 367 474 325T328 282H309L497 63H564V0H449L193 299ZM308 339Q383 339 411 368T440 456Q440 508 413 536T312 565H193V339H308ZM314
796H435L326 685H269L314 796Z" />
<glyph unicode="&#x155;" glyph-name="racute" horiz-adv-x="391" d="M33 479H159Q165 462 169 443Q173 426 176 406T179 362V330Q186 371 200 400T232 449T270 477T310 486Q332 486 341 481T356 467V404Q313 404 280 395T225 363T191 302T179 205V63H267V0H33V63H95V406H33V479ZM231
673H350L231 539H174L231 673Z" />
<glyph unicode="&#x156;" glyph-name="Rcommaaccent" horiz-adv-x="594" d="M193 299V63H276V0H40V63H106V572H40V639H322Q426 639 477 589T528 454Q528 367 474 325T328 282H309L497 63H564V0H449L193 299ZM308 339Q383 339 411 368T440 456Q440 508 413 536T312
565H193V339H308ZM252 -179Q263 -154 268 -133T273 -93Q273 -79 272 -69T269 -49H352Q354 -56 354 -61T355 -73Q355 -104 344 -131T306 -179H252Z" />
<glyph unicode="&#x157;" glyph-name="rcommaaccent" horiz-adv-x="391" d="M33 479H159Q165 462 169 443Q173 426 176 406T179 362V330Q186 371 200 400T232 449T270 477T310 486Q332 486 341 481T356 467V404Q313 404 280 395T225 363T191 302T179 205V63H267V0H33V63H95V406H33V479ZM334
-179Q345 -154 350 -133T355 -93Q355 -79 354 -69T351 -49H434Q436 -56 436 -61T437 -73Q437 -104 426 -131T388 -179H334Z" />
<glyph unicode="&#x158;" glyph-name="Rcaron" horiz-adv-x="594" d="M193 299V63H276V0H40V63H106V572H40V639H322Q426 639 477 589T528 454Q528 367 474 325T328 282H309L497 63H564V0H449L193 299ZM308 339Q383 339 411 368T440 456Q440 508 413 536T312 565H193V339H308ZM220
796L295 743L370 796H432L348 685H242L158 796H220Z" />
<glyph unicode="&#x159;" glyph-name="rcaron" horiz-adv-x="391" d="M33 479H159Q165 462 169 443Q173 426 176 406T179 362V330Q186 371 200 400T232 449T270 477T310 486Q332 486 341 481T356 467V404Q313 404 280 395T225 363T191 302T179 205V63H267V0H33V63H95V406H33V479ZM132
673L211 596L290 673H351L263 539H159L71 673H132Z" />
<glyph unicode="&#x15a;" glyph-name="Sacute" horiz-adv-x="538" d="M375 562Q352 569 329 573T283 578Q257 578 233 574T189 559T157 526T145 469Q145 445 153 425T185 391Q210 376 242 369T307 356T371 342T426 317Q454 297 470 264T487 178Q487 127 469 91T421
31T351 -4T268 -15Q188 -15 135 5T55 48V180H129V83Q156 71 189 64T261 56Q291 56 317 62T362 82T393 118T404 174Q404 200 399 217T376 248Q360 260 330 268T266 283T199 298T144 318Q104 340 84 375T63 468Q63 516 80 551T127 608T195 642T275 653Q339 653 382
638T449 603V473H375V562ZM276 796H397L288 685H231L276 796Z" />
<glyph unicode="&#x15b;" glyph-name="sacute" horiz-adv-x="428" d="M287 424Q273 427 259 429T228 431Q184 431 154 415T123 356Q123 336 129 322T155 299Q176 289 199 285T245 277T291 267T332 248Q354 233 371 208T388 135Q388 99 374 72T336 26T280 -2T209
-11Q146 -11 106 4T37 39V135H112V61Q129 55 150 52T199 48Q253 48 281 67T309 131Q309 149 304 163T284 186Q270 194 249 199T204 208T157 218T115 233Q81 250 64 275T47 349Q47 385 60 411T96 456T151 482T221 491Q266 491 303 481T362 455V358H287V424ZM229
673H348L229 539H172L229 673Z" />
<glyph unicode="&#x15c;" glyph-name="Scircumflex" horiz-adv-x="538" d="M375 562Q352 569 329 573T283 578Q257 578 233 574T189 559T157 526T145 469Q145 445 153 425T185 391Q210 376 242 369T307 356T371 342T426 317Q454 297 470 264T487 178Q487 127 469
91T421 31T351 -4T268 -15Q188 -15 135 5T55 48V180H129V83Q156 71 189 64T261 56Q291 56 317 62T362 82T393 118T404 174Q404 200 399 217T376 248Q360 260 330 268T266 283T199 298T144 318Q104 340 84 375T63 468Q63 516 80 551T127 608T195 642T275 653Q339
653 382 638T449 603V473H375V562ZM343 685L268 738L193 685H131L215 796H321L405 685H343Z" />
<glyph unicode="&#x15d;" glyph-name="scircumflex" horiz-adv-x="428" d="M287 424Q273 427 259 429T228 431Q184 431 154 415T123 356Q123 336 129 322T155 299Q176 289 199 285T245 277T291 267T332 248Q354 233 371 208T388 135Q388 99 374 72T336 26T280
-2T209 -11Q146 -11 106 4T37 39V135H112V61Q129 55 150 52T199 48Q253 48 281 67T309 131Q309 149 304 163T284 186Q270 194 249 199T204 208T157 218T115 233Q81 250 64 275T47 349Q47 385 60 411T96 456T151 482T221 491Q266 491 303 481T362 455V358H287V424ZM162
673H266L354 539H293L214 616L135 539H74L162 673Z" />
<glyph unicode="&#x15e;" glyph-name="Scedilla" horiz-adv-x="538" d="M370 562Q347 569 324 573T278 578Q252 578 228 574T184 559T152 526T140 469Q140 445 148 425T180 391Q205 376 237 369T302 356T366 342T421 317Q449 297 465 264T482 178Q482 127 464
91T416 31T346 -4T263 -15H261V-39Q307 -44 325 -65T344 -115Q344 -150 319 -168T250 -187Q224 -187 207 -181T181 -167V-127Q189 -130 201 -133T230 -137Q274 -137 274 -110Q274 -97 262 -87T207 -76V-12Q163 -7 130 5Q77 25 50 48V180H124V83Q151 71 184 64T256
56Q286 56 312 62T357 82T388 118T399 174Q399 200 394 217T371 248Q355 260 325 268T261 283T194 298T139 318Q99 340 79 375T58 468Q58 516 75 551T122 608T190 642T270 653Q334 653 377 638T444 603V473H370V562Z" />
<glyph unicode="&#x15f;" glyph-name="scedilla" horiz-adv-x="428" d="M282 424Q268 427 254 429T223 431Q179 431 149 415T118 356Q118 336 124 322T150 299Q171 289 194 285T240 277T286 267T327 248Q349 233 366 208T383 135Q383 99 369 72T331 26T274 -2Q243
-10 207 -11V-39Q253 -44 271 -65T290 -115Q290 -150 265 -168T196 -187Q170 -187 153 -181T127 -167V-127Q135 -130 147 -133T176 -137Q220 -137 220 -110Q220 -97 208 -87T153 -76V-8Q123 -4 100 4Q60 19 32 39V135H107V61Q124 55 145 52T194 48Q248 48 276 67T304
131Q304 149 299 163T279 186Q265 194 244 199T199 208T152 218T110 233Q76 250 59 275T42 349Q42 385 55 411T91 456T146 482T216 491Q261 491 298 481T357 455V358H282V424Z" />
<glyph unicode="&#x160;" glyph-name="Scaron" horiz-adv-x="538" d="M375 562Q352 569 329 573T283 578Q257 578 233 574T189 559T157 526T145 469Q145 445 153 425T185 391Q210 376 242 369T307 356T371 342T426 317Q454 297 470 264T487 178Q487 127 469 91T421
31T351 -4T268 -15Q188 -15 135 5T55 48V180H129V83Q156 71 189 64T261 56Q291 56 317 62T362 82T393 118T404 174Q404 200 399 217T376 248Q360 260 330 268T266 283T199 298T144 318Q104 340 84 375T63 468Q63 516 80 551T127 608T195 642T275 653Q339 653 382
638T449 603V473H375V562ZM193 796L268 743L343 796H405L321 685H215L131 796H193Z" />
<glyph unicode="&#x161;" glyph-name="scaron" horiz-adv-x="428" d="M287 424Q273 427 259 429T228 431Q184 431 154 415T123 356Q123 336 129 322T155 299Q176 289 199 285T245 277T291 267T332 248Q354 233 371 208T388 135Q388 99 374 72T336 26T280 -2T209
-11Q146 -11 106 4T37 39V135H112V61Q129 55 150 52T199 48Q253 48 281 67T309 131Q309 149 304 163T284 186Q270 194 249 199T204 208T157 218T115 233Q81 250 64 275T47 349Q47 385 60 411T96 456T151 482T221 491Q266 491 303 481T362 455V358H287V424ZM135
673L214 596L293 673H354L266 539H162L74 673H135Z" />
<glyph unicode="&#x162;" glyph-name="Tcommaaccent" horiz-adv-x="621" d="M499 565H354V63H437V0H184V63H267V565H122V443H43V639H578V443H499V565ZM250 -179Q261 -154 266 -133T271 -93Q271 -79 270 -69T267 -49H350Q352 -56 352 -61T353 -73Q353 -104 342
-131T304 -179H250Z" />
<glyph unicode="&#x163;" glyph-name="tcommaaccent" horiz-adv-x="388" d="M251 -13Q224 -13 198 -7T152 16T118 61T105 133V412H33V462Q65 463 82 471T110 498T124 546T135 619H189V479H343V412H189V139Q189 88 210 71T267 53Q290 53 310 57T351 69V27Q341 11
317 -1T251 -13ZM166 -179Q177 -154 182 -133T187 -93Q187 -79 186 -69T183 -49H266Q268 -56 268 -61T269 -73Q269 -104 258 -131T220 -179H166Z" />
<glyph unicode="&#x164;" glyph-name="Tcaron" horiz-adv-x="621" d="M499 565H354V63H437V0H184V63H267V565H122V443H43V639H578V443H499V565ZM235 796L310 743L385 796H447L363 685H257L173 796H235Z" />
<glyph unicode="&#x165;" glyph-name="tcaron" horiz-adv-x="388" d="M257 673H340L305 541H251L257 673ZM251 -13Q224 -13 198 -7T152 16T118 61T105 133V412H33V462Q65 463 82 471T110 498T124 546T135 619H189V479H343V412H189V139Q189 88 210 71T267 53Q290
53 310 57T351 69V27Q341 11 317 -1T251 -13Z" />
<glyph unicode="&#x166;" glyph-name="Tbar" horiz-adv-x="621" d="M113 368H498V305H113V368ZM494 565H349V63H432V0H179V63H262V565H117V443H38V639H573V443H494V565Z" />
<glyph unicode="&#x167;" glyph-name="tbar" horiz-adv-x="388" d="M338 258H28V317H338V258ZM246 -13Q219 -13 193 -7T147 16T113 61T100 133V412H28V462Q60 463 77 471T105 498T119 546T130 619H184V479H338V412H184V139Q184 88 205 71T262 53Q285 53 305 57T346
69V27Q336 11 312 -1T246 -13Z" />
<glyph unicode="&#x168;" glyph-name="Utilde" horiz-adv-x="700" d="M433 639H663V572H603V244Q603 170 585 121T533 41T453 -2T350 -15Q295 -15 249 -2T169 41T116 121T97 245V572H37V639H267V572H184V226Q184 131 226 93T350 54Q431 54 473 92T516 225V572H433V639ZM219
686Q215 707 217 726T227 761T250 786T288 796Q310 796 327 791T360 779T388 768T413 762Q429 762 432 771T438 800H481Q485 779 484 760T475 725T453 700T417 690Q399 690 382 695T350 707T319 718T288 724Q273 724 269 715T262 686H219V686Z" />
<glyph unicode="&#x169;" glyph-name="utilde" horiz-adv-x="593" d="M434 0Q428 17 424 36Q420 53 417 73T414 117V123Q408 91 393 66T356 23T307 -3T252 -12Q177 -12 134 32T90 173V406H33V479H174V160Q174 103 198 79T270 54Q301 54 327 65T373 97T403 147T414
212V406H338V479H498V63H560V0H434V0ZM160 559Q156 580 157 599T167 634T189 659T227 669Q247 669 263 664T292 652T317 641T340 635Q356 635 359 644T365 673H408Q412 652 411 633T403 598T382 573T346 563Q329 563 314 568T285 580T256 591T229 597Q214 597 210
588T203 559H160V559Z" />
<glyph unicode="&#x16a;" glyph-name="Umacron" horiz-adv-x="700" d="M433 639H663V572H603V244Q603 170 585 121T533 41T453 -2T350 -15Q295 -15 249 -2T169 41T116 121T97 245V572H37V639H267V572H184V226Q184 131 226 93T350 54Q431 54 473 92T516 225V572H433V639ZM232
765H468V699H232V765Z" />
<glyph unicode="&#x16b;" glyph-name="umacron" horiz-adv-x="593" d="M434 0Q428 17 424 36Q420 53 417 73T414 117V123Q408 91 393 66T356 23T307 -3T252 -12Q177 -12 134 32T90 173V406H33V479H174V160Q174 103 198 79T270 54Q301 54 327 65T373 97T403 147T414
212V406H338V479H498V63H560V0H434V0ZM167 628H403V562H167V628Z" />
<glyph unicode="&#x16c;" glyph-name="Ubreve" horiz-adv-x="700" d="M433 639H663V572H603V244Q603 170 585 121T533 41T453 -2T350 -15Q295 -15 249 -2T169 41T116 121T97 245V572H37V639H267V572H184V226Q184 131 226 93T350 54Q431 54 473 92T516 225V572H433V639ZM459
790Q460 770 455 749T438 712T404 685T350 674Q318 674 297 684T263 711T245 748T241 790H291Q292 770 304 755T350 739Q385 739 396 754T409 790H459Z" />
<glyph unicode="&#x16d;" glyph-name="ubreve" horiz-adv-x="593" d="M434 0Q428 17 424 36Q420 53 417 73T414 117V123Q408 91 393 66T356 23T307 -3T252 -12Q177 -12 134 32T90 173V406H33V479H174V160Q174 103 198 79T270 54Q301 54 327 65T373 97T403 147T414
212V406H338V479H498V63H560V0H434V0ZM401 673Q403 649 397 625T377 581T340 549T284 537Q252 537 229 549T192 580T172 624T168 673H222Q221 645 235 624T284 602Q320 602 334 623T347 673H401Z" />
<glyph unicode="&#x16e;" glyph-name="Uring" horiz-adv-x="700" d="M433 639H663V572H603V244Q603 170 585 121T533 41T453 -2T350 -15Q295 -15 249 -2T169 41T116 121T97 245V572H37V639H267V572H184V226Q184 131 226 93T350 54Q431 54 473 92T516 225V572H433V639ZM350
705Q370 705 383 718T396 754Q396 776 383 790T350 804Q331 804 318 790T305 754Q305 731 318 718T350 705ZM350 664Q311 664 285 690T259 754Q259 792 285 818T350 845Q369 845 386 838T415 819T435 790T442 754Q442 716 416 690T350 664Z" />
<glyph unicode="&#x16f;" glyph-name="uring" horiz-adv-x="593" d="M434 0Q428 17 424 36Q420 53 417 73T414 117V123Q408 91 393 66T356 23T307 -3T252 -12Q177 -12 134 32T90 173V406H33V479H174V160Q174 103 198 79T270 54Q301 54 327 65T373 97T403 147T414
212V406H338V479H498V63H560V0H434V0ZM285 585Q305 585 318 598T331 634Q331 656 318 670T285 684Q266 684 253 670T240 634Q240 611 253 598T285 585ZM285 544Q246 544 220 570T194 634Q194 672 220 698T285 725Q304 725 321 718T350 699T370 670T377 634Q377
596 351 570T285 544Z" />
<glyph unicode="&#x170;" glyph-name="Uhungarumlaut" horiz-adv-x="700" d="M433 639H663V572H603V244Q603 170 585 121T533 41T453 -2T350 -15Q295 -15 249 -2T169 41T116 121T97 245V572H37V639H267V572H184V226Q184 131 226 93T350 54Q431 54 473 92T516 225V572H433V639ZM283
796H381L309 685H244L283 796ZM422 796H520L448 685H383L422 796Z" />
<glyph unicode="&#x171;" glyph-name="uhungarumlaut" horiz-adv-x="593" d="M434 0Q428 17 424 36Q420 53 417 73T414 117V123Q408 91 393 66T356 23T307 -3T252 -12Q177 -12 134 32T90 173V406H33V479H174V160Q174 103 198 79T270 54Q301 54 327 65T373 97T403
147T414 212V406H338V479H498V63H560V0H434V0ZM221 673H319L239 539H176L221 673ZM366 673H464L384 539H321L366 673Z" />
<glyph unicode="&#x172;" glyph-name="Uogonek" horiz-adv-x="700" d="M32 639H262V572H179V226Q179 131 221 93T345 54Q426 54 468 92T511 225V572H428V639H658V572H598V244Q598 190 588 151T562 84T522 38T474 8Q425 -15 409 -35T392 -72Q392 -97 422 -97Q438
-97 452 -90V-137Q446 -145 432 -150T399 -155Q357 -155 337 -136T316 -88Q316 -63 331 -43T368 -14Q360 -15 357 -15H345Q290 -15 244 -2T164 41T111 121T92 245V572H32V639Z" />
<glyph unicode="&#x173;" glyph-name="uogonek" horiz-adv-x="593" d="M478 0Q436 -21 425 -39T414 -71Q414 -100 448 -100Q459 -100 467 -98T482 -92V-137Q476 -145 463 -150T431 -155Q389 -155 369 -136T348 -85Q348 -53 371 -29T425 10Q421 23 415 52T409 117V123Q403
91 388 66T351 23T302 -3T247 -12Q172 -12 129 32T85 173V406H28V479H169V160Q169 103 193 79T265 54Q296 54 322 65T368 97T398 147T409 212V406H333V479H493V63H555V0H478Z" />
<glyph unicode="&#x174;" glyph-name="Wcircumflex" horiz-adv-x="920" d="M461 536L330 0H199L76 572H30V639H247V572H165L269 52L413 639H515L657 52L763 572H678V639H890V572H844L722 0H592L461 536ZM535 685L460 738L385 685H323L407 796H513L597 685H535Z" />
<glyph unicode="&#x175;" glyph-name="wcircumflex" horiz-adv-x="775" d="M388 370L296 0H180L71 406H25V479H239V406H155L242 57L348 479H431L543 57L625 406H537V479H750V406H705L600 0H483L388 370ZM336 673H440L528 539H467L388 616L309 539H248L336 673Z" />
<glyph unicode="&#x176;" glyph-name="Ycircumflex" horiz-adv-x="606" d="M30 639H247V572H172L306 316L443 572H364V639H576V572H527L347 247V63H430V0H177V63H260V246L79 572H30V639ZM381 685L306 738L231 685H169L253 796H359L443 685H381Z" />
<glyph unicode="&#x177;" glyph-name="ycircumflex" horiz-adv-x="564" d="M330 479H539V406H486L335 -6Q320 -46 305 -74T272 -121T229 -147T174 -156Q136 -156 112 -146T74 -122V-76Q93 -82 114 -86T161 -90Q201 -90 224 -73T259 -26L269 0H231L77 406H25V479H239V406H165L289
58L408 406H330V479ZM232 673H336L424 539H363L284 616L205 539H144L232 673Z" />
<glyph unicode="&#x178;" glyph-name="Ydieresis" horiz-adv-x="606" d="M30 639H247V572H172L306 316L443 572H364V639H576V572H527L347 247V63H430V0H177V63H260V246L79 572H30V639ZM215 671Q193 671 178 686T162 723Q162 744 177 759T215 775Q236 775 251 760T267
723Q267 701 252 686T215 671ZM398 671Q377 671 362 686T346 723Q346 744 361 759T398 775Q420 775 435 760T451 723Q451 701 436 686T398 671Z" />
<glyph unicode="&#x179;" glyph-name="Zacute" horiz-adv-x="566" d="M70 639H520V541L127 70H442V166H516V0H46V98L434 564H144V473H70V639ZM302 796H423L314 685H257L302 796Z" />
<glyph unicode="&#x17a;" glyph-name="zacute" horiz-adv-x="474" d="M48 479H431V397L118 64H363V155H435V0H35V82L347 414H120V338H48V479ZM266 673H385L266 539H209L266 673Z" />
<glyph unicode="&#x17b;" glyph-name="Zdotaccent" horiz-adv-x="566" d="M70 639H520V541L127 70H442V166H516V0H46V98L434 564H144V473H70V639ZM294 682Q271 682 255 697T239 736Q239 759 255 775T294 791Q317 791 333 775T349 736Q349 713 333 698T294 682Z" />
<glyph unicode="&#x17c;" glyph-name="zdotaccent" horiz-adv-x="474" d="M48 479H431V397L118 64H363V155H435V0H35V82L347 414H120V338H48V479ZM246 551Q223 551 207 566T191 605Q191 628 207 644T246 660Q269 660 285 644T301 605Q301 582 285 567T246 551Z" />
<glyph unicode="&#x17d;" glyph-name="Zcaron" horiz-adv-x="566" d="M70 639H520V541L127 70H442V166H516V0H46V98L434 564H144V473H70V639ZM219 796L294 743L369 796H431L347 685H241L157 796H219Z" />
<glyph unicode="&#x17e;" glyph-name="zcaron" horiz-adv-x="474" d="M48 479H431V397L118 64H363V155H435V0H35V82L347 414H120V338H48V479ZM167 673L246 596L325 673H386L298 539H194L106 673H167Z" />
<glyph unicode="&#x192;" glyph-name="florin" horiz-adv-x="400" d="M114 401L127 514Q132 559 146 590T180 642T226 671T278 680Q309 680 331 672T365 652V607Q356 608 340 608T312 609Q286 609 269 605T240 590T224 564T215 524L201 401H330V335H193L138 -146H51L106
335H25V401H114Z" />
<glyph unicode="&#x1fa;" glyph-name="Aringacute" horiz-adv-x="661" d="M414 63H494L455 189H200L160 63H242V0H30V63H78L264 639H398L583 63H631V0H414V63ZM223 262H432L328 598L223 262ZM329 699Q349 699 362 712T375 748Q375 770 362 784T329 798Q310 798
297 784T284 748Q284 725 297 712T329 699ZM329 658Q290 658 264 684T238 748Q238 786 264 812T329 839Q348 839 365 832T394 813T414 784T421 748Q421 710 395 684T329 658ZM337 968H458L349 857H292L337 968Z" />
<glyph unicode="&#x1fb;" glyph-name="aringacute" d="M70 434Q79 443 93 453T128 471T175 485T235 491Q328 491 370 443T414 313V104Q414 79 422 67T458 55Q464 55 468 55T479 56V7Q472 4 464 1Q449 -4 425 -4Q386 -4 360 16T330 94Q316 40 276 14T179 -13Q116
-13 77 20T37 114V115Q37 154 53 179T97 219T159 244T233 263Q262 270 280 277T310 293T325 313T330 342V344Q330 379 305 404T223 430Q201 430 182 426T146 416V338H70V434ZM209 45Q231 45 252 54T291 81T319 125T330 186V257Q314 243 290 233T240 213Q207 201
185 193T149 175T129 155T123 125V120Q123 84 144 65T209 45ZM243 825Q263 825 276 838T289 874Q289 896 276 910T243 924Q224 924 211 910T198 874Q198 851 211 838T243 825ZM243 784Q204 784 178 810T152 874Q152 912 178 938T243 965Q262 965 279 958T308 939T328
910T335 874Q335 836 309 810T243 784ZM251 851H372L263 740H206L251 851Z" />
<glyph unicode="&#x1fc;" glyph-name="AEacute" horiz-adv-x="876" d="M223 639H818V473H744V564H515V353H748V282H515V71H754V166H828V0H362V63H428V189H210L155 63H238V0H30V63H75L296 572H223V639ZM241 262H428V564H372L241 262ZM559 796H680L571 685H514L559 796Z" />
<glyph unicode="&#x1fd;" glyph-name="aeacute" horiz-adv-x="789" d="M188 -13Q118 -13 78 20T37 114V115Q37 154 53 179T97 219T159 244T233 263Q262 270 280 277T310 293T325 313T330 342V344Q330 379 305 404T223 430Q201 430 182 426T146 416V338H70V434Q79
443 93 453T128 471T175 485T235 491Q298 491 334 469T385 404Q411 445 453 468T553 491Q607 491 644 474T705 429T739 365T750 289Q750 252 743 220H415Q416 174 427 143T460 92T512 64T583 55Q634 55 675 67T737 94V40Q723 21 681 5T573 -11Q492 -11 435 23T350
125Q338 50 296 19T188 -13ZM553 430Q493 430 455 389T415 273H674V283Q674 360 640 395T553 430ZM209 45Q231 45 253 54T292 81T319 125T330 186V257Q314 243 290 233T240 213Q207 201 185 193T149 175T129 155T123 125V120Q123 84 144 65T209 45ZM423 673H542L423
539H366L423 673Z" />
<glyph unicode="&#x1fe;" glyph-name="Oslashacute" horiz-adv-x="682" d="M341 -15Q288 -15 243 -1T160 42L113 -19H33L115 86V87Q83 129 65 187T47 321V323Q47 398 66 459T123 563T215 629T341 653Q445 653 516 602L558 656H638L562 558Q635 471 635 323V321Q635
237 613 174T552 69T459 6T341 -15ZM341 56Q441 56 494 115T547 302V354Q547 397 540 433T516 499L201 94Q249 56 341 56ZM135 302Q135 201 161 146L472 545Q449 561 417 569T341 578Q288 578 249 562T185 515T147 444T135 354V302ZM349 796H470L361 685H304L349
796Z" />
<glyph unicode="&#x1ff;" glyph-name="oslashacute" horiz-adv-x="544" d="M272 -11Q195 -11 137 27L101 -19H35L97 61Q69 93 53 138T37 245V246Q37 302 54 347T101 424T175 473T272 491Q349 491 405 454L441 500H507L445 421Q475 389 491 345T507 247V246Q507
181 489 133T438 52T363 5T272 -11ZM272 49Q303 49 330 59T378 91T409 147T421 232V270Q421 327 401 364L176 77Q195 62 219 56T272 49ZM123 232Q123 195 128 168T143 119L366 404Q328 430 272 430Q204 430 164 388T123 270V232ZM292 673H411L292 539H235L292 673Z"
/>
<glyph unicode="&#x218;" glyph-name="Scommaaccent" horiz-adv-x="538" d="M375 562Q352 569 329 573T283 578Q257 578 233 574T189 559T157 526T145 469Q145 445 153 425T185 391Q210 376 242 369T307 356T371 342T426 317Q454 297 470 264T487 178Q487 127
469 91T421 31T351 -4T268 -15Q188 -15 135 5T55 48V180H129V83Q156 71 189 64T261 56Q291 56 317 62T362 82T393 118T404 174Q404 200 399 217T376 248Q360 260 330 268T266 283T199 298T144 318Q104 340 84 375T63 468Q63 516 80 551T127 608T195 642T275 653Q339
653 382 638T449 603V473H375V562ZM208 -179Q219 -154 224 -133T229 -93Q229 -79 228 -69T225 -49H308Q310 -56 310 -61T311 -73Q311 -104 300 -131T262 -179H208Z" />
<glyph unicode="&#x219;" glyph-name="scommaaccent" horiz-adv-x="428" d="M287 424Q273 427 259 429T228 431Q184 431 154 415T123 356Q123 336 129 322T155 299Q176 289 199 285T245 277T291 267T332 248Q354 233 371 208T388 135Q388 99 374 72T336 26T280
-2T209 -11Q146 -11 106 4T37 39V135H112V61Q129 55 150 52T199 48Q253 48 281 67T309 131Q309 149 304 163T284 186Q270 194 249 199T204 208T157 218T115 233Q81 250 64 275T47 349Q47 385 60 411T96 456T151 482T221 491Q266 491 303 481T362 455V358H287V424ZM154
-179Q165 -154 170 -133T175 -93Q175 -79 174 -69T171 -49H254Q256 -56 256 -61T257 -73Q257 -104 246 -131T208 -179H154Z" />
<glyph unicode="&#x21a;" glyph-name="uni021A" horiz-adv-x="621" d="M499 565H354V63H437V0H184V63H267V565H122V443H43V639H578V443H499V565ZM250 -179Q261 -154 266 -133T271 -93Q271 -79 270 -69T267 -49H350Q352 -56 352 -61T353 -73Q353 -104 342 -131T304
-179H250Z" />
<glyph unicode="&#x21b;" glyph-name="uni021B" horiz-adv-x="388" d="M251 -13Q224 -13 198 -7T152 16T118 61T105 133V412H33V462Q65 463 82 471T110 498T124 546T135 619H189V479H343V412H189V139Q189 88 210 71T267 53Q290 53 310 57T351 69V27Q341 11 317
-1T251 -13ZM166 -179Q177 -154 182 -133T187 -93Q187 -79 186 -69T183 -49H266Q268 -56 268 -61T269 -73Q269 -104 258 -131T220 -179H166Z" />
<glyph unicode="&#x237;" glyph-name="uni0237" horiz-adv-x="262" d="M28 479H178V-33Q178 -67 169 -90T145 -127T109 -147T67 -153Q35 -153 15 -146T-13 -130V-87Q-4 -88 5 -88T31 -88Q66 -88 80 -80T94 -38V406H28V479Z" />
<glyph unicode="&#x2c6;" glyph-name="circumflex" horiz-adv-x="410" d="M148 673H252L340 539H279L200 616L121 539H60L148 673Z" />
<glyph unicode="&#x2c7;" glyph-name="caron" horiz-adv-x="410" d="M121 673L200 596L279 673H340L252 539H148L60 673H121Z" />
<glyph unicode="&#x2d8;" glyph-name="breve" horiz-adv-x="410" d="M316 673Q318 649 312 625T292 581T255 549T199 537Q167 537 144 549T107 580T87 624T83 673H137Q136 645 150 624T199 602Q235 602 249 623T262 673H316Z" />
<glyph unicode="&#x2d9;" glyph-name="dotaccent" horiz-adv-x="410" d="M200 551Q177 551 161 566T145 605Q145 628 161 644T200 660Q223 660 239 644T255 605Q255 582 239 567T200 551Z" />
<glyph unicode="&#x2da;" glyph-name="ring" horiz-adv-x="410" d="M200 585Q220 585 233 598T246 634Q246 656 233 670T200 684Q181 684 168 670T155 634Q155 611 168 598T200 585ZM200 544Q161 544 135 570T109 634Q109 672 135 698T200 725Q219 725 236 718T265
699T285 670T292 634Q292 596 266 570T200 544Z" />
<glyph unicode="&#x2db;" glyph-name="ogonek" horiz-adv-x="410" d="M214 -155Q172 -155 152 -136T131 -85Q131 -52 156 -30T214 0H261Q219 -21 208 -39T197 -71Q197 -100 231 -100Q242 -100 250 -98T265 -92V-137Q259 -145 246 -150T214 -155Z" />
<glyph unicode="&#x2dc;" glyph-name="tilde" horiz-adv-x="410" d="M75 559Q71 580 72 599T82 634T104 659T142 669Q162 669 178 664T207 652T232 641T255 635Q271 635 274 644T280 673H323Q327 652 326 633T318 598T297 573T261 563Q244 563 229 568T200 580T171
591T144 597Q129 597 125 588T118 559H75V559Z" />
<glyph unicode="&#x2dd;" glyph-name="hungarumlaut" horiz-adv-x="410" d="M136 673H234L154 539H91L136 673ZM281 673H379L299 539H236L281 673Z" />
</font>
</defs>
</svg>
